<?xml version="1.0" ?>
<svg xmlns="http://www.w3.org/2000/svg" baseProfile="tiny" height="100%" version="1.2" width="100%">
  <defs/>
  <polyline fill="none" points="56.5195,240.0 57.0,239.9077 58.0,239.7178 59.0,239.4565 59.7831,239.0 60.0,238.9078 61.0,238.5448 61.8031,238.0 62.0,237.8375 62.6204,237.0 63.0,236.1459 63.0741,236.0 63.3678,235.0 63.5204,234.0 63.5926,233.0 63.646,232.0 63.7316,231.0 63.7599,230.0 63.822,229.0 63.9164,228.0 64.0,227.3947 64.0636,227.0 64.1828,226.0 64.2619,225.0 64.3019,224.0 64.3567,223.0 64.395,222.0 64.4335,221.0 64.4483,220.0 64.463,219.0 64.4879,218.0 64.5143,217.0 64.53,216.0 64.5229,215.0 64.6079,214.0 64.7559,213.0 64.8027,212.0 64.8865,211.0 64.9045,210.0 64.8715,209.0 65.0,208.6303 65.7706,209.0 66.0,209.3743 67.0,209.5307 67.8212,210.0 68.0,210.171 69.0,210.7225 69.5048,211.0 70.0,211.4541 70.9835,212.0 71.0,212.012 72.0,212.7485 72.3466,213.0 73.0,213.5892 73.812,214.0 74.0,214.1765 75.0,214.9338 75.0907,215.0 76.0,215.7268 76.3922,216.0 77.0,216.4262 77.9985,217.0 78.0,217.0019 79.0,217.6781 79.5515,218.0 80.0,218.3848 81.0,218.7967 81.2879,219.0 82.0,219.5269 83.0,219.9034 83.1443,220.0 84.0,220.599 84.8688,221.0 85.0,221.1344 86.0,221.6895 86.7667,222.0 87.0,222.2151 88.0,222.6853 88.91,223.0 89.0,223.0812 90.0,223.5975 91.0,223.8446 91.4609,224.0 92.0,224.3105 93.0,224.6622 94.0,224.9484 94.2502,225.0 95.0,225.2987 96.0,225.608 97.0,225.7576 98.0,225.9975 98.0102,226.0 99.0,226.4011 100.0,226.5266 101.0,226.6445 102.0,226.7693 103.0,226.854 104.0,226.9684 104.6513,227.0 105.0,227.0478 106.0,227.2291 107.0,227.3663 108.0,227.4524 109.0,227.5184 110.0,227.5694 111.0,227.5964 112.0,227.6994 113.0,227.748 114.0,227.8094 115.0,227.8597 116.0,227.9077 117.0,227.9568 117.6593,228.0 118.0,228.0685 119.0,228.1977 120.0,228.3508 121.0,228.3587 122.0,228.3703 123.0,228.3953 124.0,228.4141 125.0,228.4279 126.0,228.4451 127.0,228.4512 128.0,228.4485 129.0,228.4352 130.0,228.4124 131.0,228.384 132.0,228.3187 133.0,228.2342 134.0,228.1556 135.0,228.1031 135.2334,228.0 136.0,227.8759 137.0,227.8662 138.0,227.8527 139.0,227.8193 140.0,227.7582 141.0,227.6418 142.0,227.5055 143.0,227.39 143.8906,227.0 144.0,226.965 145.0,226.7851 146.0,226.4827 146.9184,226.0 147.0,225.9726 148.0,225.651 149.0,225.0466 149.0635,225.0 150.0,224.5228 150.5619,224.0 151.0,223.7439 151.903,223.0 152.0,222.9012 153.0,222.2503 153.2314,222.0 154.0,221.0301 154.0442,221.0 155.0,220.1361 155.1199,220.0 155.8942,219.0 156.0,218.8573 156.7365,218.0 157.0,217.4802 157.432,217.0 157.8804,216.0 158.0,215.8092 158.6257,215.0 158.9468,214.0 159.0,213.9108 160.0,213.5007 160.7474,214.0 161.0,214.2621 162.0,214.7487 162.4259,215.0 163.0,215.511 164.0,215.9793 164.0318,216.0 165.0,216.6688 165.5805,217.0 166.0,217.4273 167.0,217.8511 167.2113,218.0 168.0,218.5628 168.8996,219.0 169.0,219.1058 170.0,219.6092 171.0,219.9708 171.0546,220.0 172.0,220.5831 173.0,220.8252 173.3919,221.0 174.0,221.4822 175.0,221.7139 175.671,222.0 176.0,222.2995 177.0,222.6199 178.0,222.8756 178.4072,223.0 179.0,223.3611 180.0,223.6623 181.0,223.8736 181.5337,224.0 182.0,224.2551 183.0,224.4976 184.0,224.6921 185.0,224.8256 185.9121,225.0 186.0,225.0534 187.0,225.3943 188.0,225.5682 189.0,225.7154 190.0,225.8411 191.0,225.9147 191.4484,226.0 192.0,226.2548 193.0,226.3619 194.0,226.4951 195.0,226.5858 196.0,226.635 197.0,226.6629 198.0,226.6855 199.0,226.6982 200.0,226.7633 201.0,226.7504 202.0,226.7282 203.0,226.6997 204.0,226.6562 205.0,226.5981 206.0,226.5281 207.0,226.4798 208.0,226.3942 209.0,226.273 209.8833,226.0 210.0,225.9833 211.0,225.8561 212.0,225.7542 213.0,225.6607 214.0,225.564 215.0,225.4942 216.0,225.0004 216.0014,225.0 217.0,224.9015 218.0,224.7314 219.0,224.5252 220.0,224.2339 220.4727,224.0 221.0,223.863 222.0,223.6019 223.0,223.3194 223.5103,223.0 224.0,222.811 225.0,222.5729 225.9822,222.0 226.0,221.9916 227.0,221.6887 228.0,221.2322 228.289,221.0 229.0,220.7377 230.0,220.3044 230.35,220.0 231.0,219.6953 232.0,219.1035 232.1936,219.0 233.0,218.6795 233.7572,218.0 234.0,217.8509 235.0,217.138 235.1429,217.0 236.0,216.5385 236.6364,216.0 237.0,215.7265 238.0,215.077 238.0747,215.0 239.0,214.3261 239.331,214.0 240.0,213.3683 240.3761,213.0 241.0,212.3694 241.419,212.0 242.0,211.3731 242.3589,211.0 243.0,210.3748 243.3614,210.0 244.0,209.1747 244.1402,209.0 244.9741,208.0 245.0,207.97 245.7058,207.0 246.0,206.498 246.3973,206.0 246.8748,205.0 247.0,204.7968 247.5788,204.0 247.8907,203.0 248.0,202.7184 248.4245,202.0 248.8013,201.0 249.0,200.0542 249.0182,200.0 249.4647,199.0 249.6084,198.0 249.7986,197.0 249.984,196.0 250.0,195.9058 250.1594,195.0 250.271,194.0 250.36,193.0 250.4094,192.0 250.4282,191.0 250.4202,190.0 250.3729,189.0 250.2805,188.0 250.1492,187.0 250.0,186.4919 249.8547,186.0 249.5428,185.0 249.3071,184.0 249.0,183.5314 248.6738,183.0 248.2372,182.0 248.0,181.7109 247.5759,181.0 247.0,180.2812 246.7321,180.0 246.0,179.3808 245.5171,179.0 245.0,178.5803 244.1496,178.0 244.0,177.8769 243.0,177.3463 242.3226,177.0 242.0,176.8081 241.0,176.4307 240.0678,176.0 240.0,175.9588 239.0,175.5418 238.0,175.3512 237.1967,175.0 237.0,174.896 236.0,174.568 235.0,174.3529 234.0,174.0352 233.9274,174.0 233.0,173.6488 232.0,173.4957 231.0,173.22 230.0,173.1189 229.8487,173.0 229.3151,172.0 229.3139,171.0 229.287,170.0 229.288,169.0 229.2834,168.0 229.2879,167.0 229.2879,166.0 229.2835,165.0 229.2835,164.0 229.279,163.0 229.279,162.0 229.2744,161.0 229.2744,160.0 229.2208,159.0 229.2279,158.0 229.2419,157.0 229.249,156.0 229.2649,155.0 229.2924,154.0 229.3335,153.0 229.3609,152.0 229.3865,151.0 229.4228,150.0 229.4619,149.0 229.5027,148.0 229.5792,147.0 229.7355,146.0 229.9776,145.0 230.0,144.8898 230.2847,144.0 230.6378,143.0 231.0,142.2262 231.2619,142.0 231.6711,141.0 232.0,140.4559 232.4734,140.0 233.0,139.1946 233.1627,139.0 234.0,138.202 234.1724,138.0 235.0,137.3179 235.4383,137.0 236.0,136.4922 236.499,136.0 237.0,135.6629 237.8866,135.0 238.0,134.8992 239.0,134.1786 239.1893,134.0 240.0,133.2983 240.3381,133.0 241.0,132.409 241.452,132.0 242.0,131.4521 242.4294,131.0 243.0,130.4148 243.3719,130.0 244.0,129.2514 244.2415,129.0 245.0,128.023 245.0191,128.0 245.7758,127.0 246.0,126.6367 246.4792,126.0 246.9878,125.0 247.0,124.9814 247.6404,124.0 248.0,123.2285 248.1533,123.0 248.5582,122.0 248.9159,121.0 249.0,120.7629 249.3456,120.0 249.7169,119.0 249.8977,118.0 250.0,117.6693 250.2466,117.0 250.4557,116.0 250.5875,115.0 250.7143,114.0 250.8528,113.0 250.9554,112.0 251.0,111.7568 251.155,111.0 251.2338,110.0 251.3441,109.0 251.4291,108.0 251.499,107.0 251.5653,106.0 251.6369,105.0 251.6858,104.0 251.7525,103.0 251.7898,102.0 251.8609,101.0 251.9625,100.0 252.0,99.613 252.0663,99.0 252.1492,98.0 252.1921,97.0 252.2143,96.0 252.3195,95.0 252.3195,94.0 252.3219,93.0 252.3198,92.0 252.3221,91.0 252.32,90.0 252.3223,89.0 252.3223,88.0 252.2995,87.0 252.262,86.0 252.2148,85.0 252.1417,84.0 252.0227,83.0 252.0,82.8874 251.8364,82.0 251.6928,81.0 251.6132,80.0 251.5024,79.0 251.4013,78.0 251.2298,77.0 251.0,76.1297 250.9578,76.0 250.7143,75.0 250.5165,74.0 250.2625,73.0 250.0,72.014 249.9952,72.0 249.585,71.0 249.3339,70.0 249.0,69.3607 248.8104,69.0 248.4939,68.0 248.0,67.0179 247.9858,67.0 247.4759,66.0 247.0,65.0756 246.9385,65.0 246.3462,64.0 246.0,63.5278 245.4954,63.0 245.0,62.4421 244.5978,62.0 244.0,61.5039 243.5252,61.0 243.0,60.5345 242.2161,60.0 242.0,59.8094 241.0,59.1255 240.8262,59.0 240.0,58.4761 239.3177,58.0 239.0,57.7781 238.0,57.4088 237.3665,57.0 237.0,56.7875 236.0,56.4342 235.1044,56.0 235.0,55.9385 234.0,55.5647 233.0,55.2427 232.3789,55.0 232.0,54.8458 231.0,54.586 230.0,54.411 229.0,54.1142 228.6524,54.0 228.0,53.8056 227.0,53.6076 226.0,53.3833 225.0,53.1058 224.5127,53.0 224.0,52.8988 223.0,52.6313 222.0,52.4831 221.0,52.2442 220.2722,52.0 220.0,51.8982 219.0,51.6555 218.0,51.4452 217.0,51.1013 216.7389,51.0 216.0,50.7681 215.0,50.4617 214.0,50.1474 213.7649,50.0 213.0,49.6643 212.0,49.3754 211.2491,49.0 211.0,48.8459 210.0,48.321 209.5301,48.0 209.0,47.6193 208.5247,47.0 208.3474,46.0 208.2397,45.0 208.1836,44.0 208.0258,43.0 208.0,42.8658 207.8432,42.0 207.6986,41.0 207.5813,40.0 207.4343,39.0 207.3394,38.0 207.1093,37.0 207.0,36.6976 206.7719,36.0 206.5586,35.0 206.3297,34.0 206.0,33.1679 205.918,33.0 205.6446,32.0 205.3586,31.0 205.0,30.2903 204.8218,30.0 204.4594,29.0 204.0,28.1764 203.8641,28.0 203.4087,27.0 203.0,26.2433 202.8281,26.0 202.275,25.0 202.0,24.5998 201.6015,24.0 201.0,23.3021 200.7396,23.0 200.0,22.1352 199.8679,22.0 199.1226,21.0 199.0,20.8707 198.0785,20.0 198.0,19.9311 197.0551,19.0 197.0,18.9449 196.0,18.188 195.7914,18.0 195.0,17.3584 194.534,17.0 194.0,16.5843 193.1515,16.0 193.0,15.866 192.0,15.4119 191.4863,15.0 191.0,14.6389 190.0,14.098 189.8868,14.0 189.0,13.5182 188.138,13.0 188.0,12.8988 187.0,12.3839 186.3564,12.0 186.0,11.7781 185.0,11.3506 184.4689,11.0 184.0,10.7277 183.0,10.4369 182.0049,10.0 182.0,9.9972 181.0,9.575 180.0,9.3291 179.1872,9.0 179.0,8.9105 178.0,8.6272 177.0,8.41 176.0,8.1613 175.5614,8.0 175.0,7.826 174.0,7.662 173.0,7.4637 172.0,7.2828 171.0,7.0557 170.8173,7.0 170.0,6.7971 169.0,6.6072 168.0,6.5033 167.0,6.3416 166.0,6.266 165.0,6.145 164.0,6.013 163.9015,6.0 163.0,5.8954 162.0,5.814 161.0,5.7533 160.0,5.7191 159.0,5.6891 158.0,5.6972 157.0,5.7184 156.0,5.7566 155.0,5.8213 154.0,5.9033 153.0,5.9813 152.6537,6.0 152.0,6.0394 151.0,6.305 150.0,6.4207 149.0,6.5749 148.0,6.7381 147.0,6.952 146.854,7.0 146.0,7.2628 145.0,7.4914 144.0,7.6319 143.0,7.8693 142.6495,8.0 142.0,8.2487 141.0,8.5032 140.0,8.7237 139.3136,9.0 139.0,9.1404 138.0,9.4337 137.0,9.7515 136.4319,10.0 136.0,10.1884 135.0,10.542 134.0528,11.0 134.0,11.0352 133.0,11.4849 132.0639,12.0 132.0,12.0503 131.0,12.6086 130.3949,13.0 130.0,13.2941 129.0,13.863 128.8268,14.0 128.0,14.5582 127.5345,15.0 127.0,15.4444 126.3037,16.0 126.0,16.2857 125.2075,17.0 125.0,17.2075 124.2762,18.0 124.0,18.2606 123.3002,19.0 123.0,19.3385 122.4893,20.0 122.0,20.5655 121.6025,21.0 121.0,21.876 120.8864,22.0 120.3709,23.0 120.0,23.4531 119.6012,24.0 119.2124,25.0 119.0,25.3207 118.6382,26.0 118.3412,27.0 118.0,27.834 117.9111,28.0 117.5975,29.0 117.3763,30.0 117.1619,31.0 117.0,31.4474 116.8075,32.0 116.6334,33.0 116.4699,34.0 116.0,34.4818 115.0,34.5549 114.0,34.448 113.0,34.4407 112.0,34.3385 111.0,34.2805 110.0,34.2562 109.0,34.2168 108.0,34.1791 107.0,34.1662 106.0,34.2016 105.0,34.2545 104.0,34.2885 103.0,34.4437 102.0,34.6307 101.0,34.8719 100.6624,35.0 100.0,35.2338 99.0,35.5432 98.0,35.8727 97.7753,36.0 97.0,36.4477 96.0,36.8919 95.877,37.0 95.0,37.7334 94.7279,38.0 94.0,38.6565 93.6387,39.0 93.0,39.6944 92.7171,40.0 92.2129,41.0 92.0,41.2936 91.0,41.6195 90.5959,41.0 90.2797,40.0 90.0,39.5581 89.6328,39.0 89.2143,38.0 89.0,37.7793 88.4752,37.0 88.0,36.3653 87.6854,36.0 87.0,35.1934 86.7925,35.0 86.0,34.1775 85.8223,34.0 85.0,33.2959 84.6835,33.0 84.0,32.4244 83.4702,32.0 83.0,31.5924 82.1827,31.0 82.0,30.8522 81.0,30.2242 80.6703,30.0 80.0,29.6027 79.1216,29.0 79.0,28.9004 78.0,28.4202 77.3391,28.0 77.0,27.784 76.0,27.3651 75.4555,27.0 75.0,26.7064 74.0,26.3646 73.3847,26.0 73.0,25.7642 72.0,25.414 71.1363,25.0 71.0,24.9249 70.0,24.6288 69.0,24.3572 68.0,24.0968 67.7726,24.0 67.0,23.7207 66.0,23.4651 65.0,23.2235 64.1018,23.0 64.0,22.968 63.0,22.6061 62.0,22.3596 61.2684,22.0 61.0,21.845 60.0,21.4657 59.2136,21.0 59.0,20.8335 58.0,20.3944 57.352,20.0 57.0,19.7352 56.0,19.199 55.7415,19.0 55.0,18.5567 54.206,18.0 54.0,17.8273 53.0,17.3113 52.578,17.0 52.0,16.5368 51.2484,16.0 51.0,15.8017 50.0,15.1212 49.8553,15.0 49.0,14.4325 48.4214,14.0 48.0,13.679 47.0212,13.0 47.0,12.9812 46.0,12.3466 45.5995,12.0 45.0,11.5718 44.0918,11.0 44.0,10.9207 43.0,10.3461 42.5573,10.0 42.0,9.6034 41.0,9.1567 40.8181,9.0 40.0,8.4911 39.0916,8.0 39.0,7.9239 38.0,7.5494 37.0,7.1453 36.726,7.0 36.0,6.6393 35.0,6.3292 34.0579,6.0 34.0,5.9735 33.0,5.6036 32.0,5.4084 31.0,5.1277 30.4174,5.0 30.0,4.9003 29.0,4.7312 28.0,4.6811 27.0,4.6702 26.0,4.7353 25.0792,5.0 25.0,5.0294 24.0,5.3118 23.0,5.6433 22.2032,6.0 22.0,6.1094 21.0,6.5386 20.129,7.0 20.0,7.0903 19.0,7.5778 18.3513,8.0 18.0,8.2385 17.0,8.838 16.8168,9.0 16.0,9.5536 15.4571,10.0 15.0,10.4832 14.464,11.0 14.0,11.399 13.4816,12.0 13.0,12.5377 12.5644,13.0 12.0,13.6828 11.7268,14.0 11.0,14.9729 10.9744,15.0 10.3002,16.0 10.0,16.5155 9.6708,17.0 9.1795,18.0 9.0,18.2941 8.6432,19.0 8.342,20.0 8.0,20.8978 7.9451,21.0 7.5991,22.0 7.44,23.0 7.1117,24.0 7.0,24.3911 6.8376,25.0 6.6122,26.0 6.5057,27.0 6.4312,28.0 6.3622,29.0 6.3202,30.0 6.324,31.0 6.3576,32.0 6.4359,33.0 6.537,34.0 6.6297,35.0 6.7289,36.0 6.8871,37.0 7.0,37.4516 7.1322,38.0 7.2524,39.0 7.454,40.0 7.5719,41.0 7.8208,42.0 8.0,42.4839 8.1464,43.0 8.3378,44.0 8.5516,45.0 8.9234,46.0 9.0,46.205 9.17,47.0 9.4528,48.0 9.7541,49.0 10.0,49.3649 10.2692,50.0 10.5166,51.0 11.0,51.8783 11.067,52.0 11.4496,53.0 11.937,54.0 12.0,54.0837 12.4017,55.0 13.0,55.9815 13.0127,56.0 13.354,57.0 14.0,57.9778 14.0127,58.0 14.3866,59.0 15.0,59.9344 15.0466,60.0 15.4822,61.0 16.0,61.8704 16.0955,62.0 16.5268,63.0 17.0,63.5647 17.3376,64.0 17.9712,65.0 18.0,65.0253 18.48,66.0 19.0,66.715 19.1926,67.0 19.7367,68.0 20.0,68.3019 20.4553,69.0 21.0,69.8136 21.1409,70.0 21.9415,71.0 22.0,71.0946 22.5492,72.0 23.0,72.5729 23.2303,73.0 24.0,73.9013 24.0833,74.0 24.9314,75.0 25.0,75.0897 25.6592,76.0 26.0,76.3905 26.4212,77.0 27.0,77.5704 27.4359,78.0 28.0,78.7376 28.2313,79.0 29.0,79.6887 29.3361,80.0 30.0,80.6864 30.3083,81.0 31.0,81.5845 31.4599,82.0 32.0,82.4746 32.4917,83.0 33.0,83.4768 33.3783,84.0 33.0,84.9457 32.9576,85.0 32.2557,86.0 32.0,86.2888 31.4426,87.0 31.0,87.5598 30.7123,88.0 30.2935,89.0 30.0,89.4946 29.7281,90.0 29.4233,91.0 29.0,91.8869 28.9307,92.0 28.612,93.0 28.4103,94.0 28.1721,95.0 28.0,95.6463 27.8972,96.0 27.8006,97.0 27.6913,98.0 27.6122,99.0 27.5579,100.0 27.5047,101.0 27.4425,102.0 27.3953,103.0 27.3428,104.0 27.3325,105.0 27.3108,106.0 27.2837,107.0 27.2515,108.0 27.2205,109.0 27.1916,110.0 27.1755,111.0 27.1241,112.0 27.1232,113.0 27.1099,114.0 27.1028,115.0 27.0893,116.0 27.0827,117.0 27.0693,118.0 27.0693,119.0 27.0,119.7917 26.9808,120.0 26.9808,121.0 26.9733,122.0 26.9659,123.0 26.9583,124.0 26.9511,125.0 26.9508,126.0 26.9436,127.0 26.9511,128.0 26.9511,129.0 26.9656,130.0 26.9808,131.0 26.9961,132.0 27.0,132.5 27.004,133.0 27.0197,134.0 27.0273,135.0 27.0957,136.0 27.1021,137.0 27.1021,138.0 27.1028,139.0 27.1092,140.0 27.1162,141.0 27.1162,142.0 27.1162,143.0 27.1267,144.0 27.1267,145.0 27.1385,146.0 27.15,147.0 27.1612,148.0 27.1732,149.0 27.1797,150.0 27.1851,151.0 27.2319,152.0 27.2411,153.0 27.2645,154.0 27.2983,155.0 27.3434,156.0 27.3877,157.0 27.4289,158.0 27.4505,159.0 27.5239,160.0 27.5806,161.0 27.7258,162.0 28.0,162.9659 28.0116,163.0 28.2607,164.0 28.4692,165.0 28.9253,166.0 29.0,166.1102 29.3281,167.0 29.8487,168.0 30.0,168.217 30.2923,169.0 30.7479,170.0 31.0,170.3642 31.3483,171.0 31.8345,172.0 32.0,172.2169 32.4233,173.0 32.9411,174.0 33.0,174.0724 33.4702,175.0 34.0,175.7074 34.2119,176.0 34.6261,177.0 35.0,177.4706 35.375,178.0 36.0,178.9375 36.0423,179.0 36.4675,180.0 36.5828,181.0 36.5778,182.0 36.5873,183.0 36.6758,184.0 36.7397,185.0 36.8027,186.0 36.8367,187.0 36.8483,188.0 36.8552,189.0 36.8552,190.0 36.8435,191.0 36.8793,192.0 36.8979,193.0 36.9375,194.0 36.9882,195.0 37.0,195.2143 37.0414,196.0 37.0893,197.0 37.1267,198.0 37.1443,199.0 37.1827,200.0 37.1879,201.0 37.1981,202.0 37.2081,203.0 37.2205,204.0 37.2253,205.0 37.2253,206.0 37.2253,207.0 37.2797,208.0 37.2797,209.0 37.2797,210.0 37.2837,211.0 37.2989,212.0 37.3156,213.0 37.3324,214.0 37.3436,215.0 37.3783,216.0 37.3836,217.0 37.3889,218.0 37.3974,219.0 37.4132,220.0 37.4267,221.0 37.4395,222.0 37.4447,223.0 37.4625,224.0 37.4733,225.0 37.4976,226.0 37.5254,227.0 37.5451,228.0 37.5657,229.0 37.6125,230.0 37.6545,231.0 37.9314,232.0 38.0,232.1874 38.2488,233.0 38.6474,234.0 39.0,234.5289 39.2909,235.0 40.0,235.8929 40.1205,236.0 40.956,237.0 41.0,237.0536 42.0,237.7156 42.4446,238.0 43.0,238.4608 44.0,238.7878 44.4689,239.0 45.0,239.4726 46.0,239.7796 47.0,239.8866 47.5033,240.0 48.0,240.2474 49.0,240.3754 50.0,240.522 51.0,240.5972 52.0,240.6147 53.0,240.5759 54.0,240.5061 55.0,240.448 56.0,240.2373 56.5195,240.0" stroke="black"/>
  <polyline fill="none" points="44.0,77.5914 43.0,77.523 42.4197,77.0 42.0,76.6598 41.231,76.0 41.0,75.7853 40.02,75.0 40.0,74.9802 39.0,74.1326 38.8674,74.0 38.0267,73.0 38.0,72.9733 37.1556,72.0 37.0,71.8401 36.2692,71.0 36.0,70.7292 35.3,70.0 35.0,69.6893 34.3381,69.0 34.0,68.6437 33.3927,68.0 33.0,67.5428 32.4907,67.0 32.0,66.4239 31.6515,66.0 31.019,65.0 31.0,64.9819 30.2074,64.0 30.0,63.7832 29.3075,63.0 29.0,62.631 28.468,62.0 28.0,61.3711 27.7286,61.0 27.0615,60.0 27.0,59.937 26.4453,59.0 26.0,58.3953 25.6786,58.0 25.1267,57.0 25.0,56.8458 24.4572,56.0 24.0,55.3423 23.7413,55.0 23.3426,54.0 23.0,53.445 22.7413,53.0 22.3285,52.0 22.0,51.435 21.7456,51.0 21.4458,50.0 21.0,49.0474 20.9625,49.0 20.5419,48.0 20.2452,47.0 20.0,46.4726 19.787,46.0 19.4758,45.0 19.2319,44.0 19.0,43.4934 18.7656,43.0 18.4949,42.0 18.273,41.0 18.0192,40.0 18.0,39.9695 17.6084,39.0 17.4895,38.0 17.2922,37.0 17.0414,36.0 17.0,35.8382 16.8173,35.0 16.7011,34.0 16.6395,33.0 16.6192,32.0 16.6466,31.0 16.6572,30.0 16.6929,29.0 16.8173,28.0 17.0,27.3372 17.1021,27.0 17.3307,26.0 17.5546,25.0 17.7753,24.0 18.0,23.6011 18.2956,23.0 18.6605,22.0 19.0,21.4921 19.3378,21.0 20.0,20.0354 20.0341,20.0 20.6657,19.0 21.0,18.606 21.6444,18.0 22.0,17.6588 22.5838,17.0 23.0,16.616 23.8577,16.0 24.0,15.8696 25.0,15.4226 26.0,15.0028 26.006,15.0 27.0,14.6467 28.0,14.5046 29.0,14.502 30.0,14.6492 31.0,14.8217 31.4418,15.0 32.0,15.2172 33.0,15.4677 34.0,15.8878 34.1624,16.0 35.0,16.4411 36.0,16.9333 36.0832,17.0 37.0,17.5232 37.8674,18.0 38.0,18.1161 39.0,18.7515 39.2843,19.0 40.0,19.6381 40.4806,20.0 41.0,20.3983 41.7784,21.0 42.0,21.1932 43.0,21.8928 43.1144,22.0 44.0,22.6707 44.4215,23.0 45.0,23.4802 45.7513,24.0 46.0,24.2442 47.0,24.8059 47.207,25.0 48.0,25.6026 48.5537,26.0 49.0,26.3452 50.0,26.8121 50.2393,27.0 51.0,27.5015 51.8566,28.0 52.0,28.109 53.0,28.5333 53.7821,29.0 54.0,29.1506 55.0,29.5182 55.84,30.0 56.0,30.1152 57.0,30.4831 58.0,30.9046 58.158,31.0 59.0,31.3953 60.0,31.725 60.4947,32.0 61.0,32.2827 62.0,32.6774 62.7133,33.0 63.0,33.1547 64.0,33.5678 65.0,33.9994 65.0009,34.0 66.0,34.4017 67.0,34.6329 67.9306,35.0 68.0,35.0388 69.0,35.4007 70.0,35.6838 71.0,35.9994 71.0008,36.0 72.0,36.4886 73.0,36.9225 73.1008,37.0 74.0,37.4609 74.9014,38.0 75.0,38.0751 76.0,38.6737 76.3665,39.0 77.0,39.5348 77.4907,40.0 78.0,40.459 78.5377,41.0 79.0,41.483 79.466,42.0 80.0,42.7002 80.2444,43.0 80.7244,44.0 81.0,44.4211 81.3658,45.0 81.6875,46.0 82.0,46.8701 82.0632,47.0 82.2816,48.0 82.4115,49.0 82.404,50.0 82.39,51.0 82.2831,52.0 82.1392,53.0 82.0,53.4572 81.3894,54.0 81.0,54.1091 80.8702,54.0 80.0,53.4386 79.2584,53.0 79.0,52.8175 78.0,52.3732 77.433,52.0 77.0,51.7443 76.0,51.2992 75.4976,51.0 75.0,50.7384 74.0,50.3928 73.1927,50.0 73.0,49.8884 72.0,49.5916 71.0,49.3585 70.0,49.1378 69.5776,49.0 69.0,48.8241 68.0,48.6746 67.0,48.5803 66.0,48.4977 65.0,48.4698 64.0,48.4892 63.0,48.5549 62.0,48.6814 61.0111,49.0 61.0,49.0053 60.0,49.3738 59.0,49.6918 58.5061,50.0 58.0,50.2964 57.0,50.7357 56.6542,51.0 56.0,51.4385 55.2328,52.0 55.0,52.2585 54.2944,53.0 54.0,53.2626 53.3971,54.0 53.0,54.4787 52.5824,55.0 52.0,55.7537 51.7919,56.0 51.4193,57.0 51.0,57.7597 50.8565,58.0 50.5683,59.0 50.3665,60.0 50.1003,61.0 50.0,61.6202 49.9385,62.0 49.967,63.0 50.0,63.2074 50.1156,64.0 50.1836,65.0 50.3548,66.0 50.5522,67.0 50.7926,68.0 51.0,68.4508 51.2419,69.0 51.5623,70.0 51.9052,71.0 52.0,71.1192 52.5573,72.0 52.865,73.0 52.0,73.8285 51.6194,74.0 51.0,74.2509 50.0,74.5991 49.1891,75.0 49.0,75.1233 48.0,75.4906 47.0,75.8733 46.8432,76.0 46.0,76.5155 45.0,76.9733 44.9673,77.0 44.0,77.5914" stroke="black"/>
  <polyline fill="none" points="155.0,30.2868 154.0,30.1104 153.8695,30.0 153.0,29.1086 152.9045,29.0 152.0,28.0194 151.9827,28.0 151.1218,27.0 151.0,26.8796 150.2319,26.0 150.0,25.7497 149.4284,25.0 149.0,24.5408 148.4592,24.0 148.0,23.4113 147.6162,23.0 147.0,22.3947 146.6762,22.0 146.0,21.2598 145.7375,21.0 145.0,20.0482 144.9569,20.0 144.0767,19.0 144.0,18.9133 143.3785,18.0 143.7689,17.0 144.0,16.8521 145.0,16.6242 146.0,16.4177 147.0,16.1769 148.0,16.0615 148.3095,16.0 149.0,15.8697 150.0,15.7211 151.0,15.5988 152.0,15.467 153.0,15.4264 154.0,15.3803 155.0,15.3282 156.0,15.2824 157.0,15.2511 158.0,15.2409 159.0,15.2405 160.0,15.296 161.0,15.5847 161.3162,16.0 161.2585,17.0 161.1158,18.0 161.0,18.537 160.898,19.0 160.7373,20.0 160.6216,21.0 160.498,22.0 160.4,23.0 160.2666,24.0 160.1451,25.0 160.0,25.5831 159.885,26.0 159.697,27.0 159.5615,28.0 159.4461,29.0 159.0,29.5561 158.0,29.8682 157.0,29.8674 156.0,29.9347 155.8584,30.0 155.0,30.2868" stroke="black"/>
  <polyline fill="none" points="172.0,31.4798 171.0,31.6621 170.0,31.4707 169.0054,31.0 169.0,30.9912 168.7081,30.0 168.9802,29.0 169.0,28.9428 169.25,28.0 169.3582,27.0 169.5471,26.0 169.6278,25.0 169.7864,24.0 169.8762,23.0 170.0,22.4189 170.0905,22.0 170.1603,21.0 170.3114,20.0 170.3422,19.0 170.4324,18.0 170.6231,17.0 171.0,16.6136 172.0,16.6404 172.8915,17.0 173.0,17.0631 174.0,17.522 175.0,17.7247 175.435,18.0 176.0,18.3189 177.0,18.5882 177.6563,19.0 178.0,19.2059 179.0,19.8268 179.128,20.0 179.0,20.2048 178.579,21.0 178.0,21.9843 177.9875,22.0 177.4294,23.0 177.0,23.5504 176.6626,24.0 176.2198,25.0 176.0,25.2381 175.5235,26.0 175.0,26.8369 174.8668,27.0 174.3195,28.0 174.0,28.4717 173.5891,29.0 173.0,29.9356 172.9487,30.0 172.3569,31.0 172.0,31.4798" stroke="black"/>
  <polyline fill="none" points="145.0,35.1004 144.0,35.4062 143.0,35.1784 142.4889,35.0 142.0,34.8335 141.0,34.5671 140.0,34.3628 139.0216,34.0 139.0,33.9889 138.0,33.6444 137.0,33.3909 136.0,33.1458 135.7269,33.0 135.0,32.6719 134.0,32.4686 133.0,32.1113 132.7532,32.0 132.0,31.7441 131.0,31.5224 130.0,31.2431 129.6747,31.0 129.0596,30.0 129.5084,29.0 130.0,28.2801 130.2184,28.0 130.7585,27.0 131.0,26.7076 131.5328,26.0 132.0,25.4837 132.3938,25.0 133.0,24.3415 133.3537,24.0 134.0,23.3498 134.4002,23.0 135.0,22.4692 136.0,22.5714 136.3617,23.0 137.0,23.7668 137.2238,24.0 138.0,24.882 138.1091,25.0 139.0,25.9812 139.0187,26.0 139.8551,27.0 140.0,27.1498 140.716,28.0 141.0,28.3133 141.6298,29.0 142.0,29.4144 142.5327,30.0 143.0,30.5098 143.4481,31.0 144.0,31.5907 144.3616,32.0 145.0,32.7392 145.2873,33.0 145.6922,34.0 145.1128,35.0 145.0,35.1004" stroke="black"/>
  <polyline fill="none" points="182.0,38.2185 181.0,38.8122 180.0,38.463 179.5867,38.0 179.3552,37.0 179.855,36.0 180.0,35.8056 180.4609,35.0 181.0,34.2636 181.2272,34.0 181.6618,33.0 182.0,32.5828 182.4553,32.0 183.0,31.2477 183.2209,31.0 183.8299,30.0 184.0,29.8191 184.5403,29.0 185.0,28.4351 185.3598,28.0 186.0,27.0675 186.0654,27.0 186.6642,26.0 187.0,25.543 187.5473,25.0 188.0,24.6641 188.4318,25.0 189.0,25.458 189.6084,26.0 190.0,26.3621 190.5932,27.0 191.0,27.4765 191.4526,28.0 192.0,28.6897 192.297,29.0 192.6904,30.0 192.1014,31.0 192.0,31.0938 191.0,31.683 190.5222,32.0 190.0,32.3716 189.1094,33.0 189.0,33.09 188.0,33.7616 187.7327,34.0 187.0,34.537 186.3546,35.0 186.0,35.2999 185.0,35.8919 184.8795,36.0 184.0,36.6289 183.5221,37.0 183.0,37.4372 182.2758,38.0 182.0,38.2185" stroke="black"/>
  <polyline fill="none" points="171.0,54.0375 170.0,54.1091 169.0,54.2489 168.0,54.2566 167.0,54.3388 166.0,54.3508 165.0,54.3627 164.0,54.3687 163.0,54.3627 162.0,54.3448 161.0,54.3229 160.0,54.3111 159.0,54.2505 158.0,54.1985 157.0,54.1121 156.0,54.0046 155.9616,54.0 155.0,53.8969 154.0,53.801 153.0,53.7167 152.0,53.6678 151.0,53.5636 150.0,53.4365 149.0,53.2905 148.4196,53.0 148.0,52.0127 147.9966,52.0 148.0,51.9846 148.178,51.0 148.4067,50.0 148.6053,49.0 148.9964,48.0 149.0,47.9948 149.4142,47.0 149.8464,46.0 150.0,45.804 150.4588,45.0 151.0,44.0865 151.0689,44.0 151.7792,43.0 152.0,42.7914 152.8253,42.0 153.0,41.8348 154.0,41.2791 154.4626,41.0 155.0,40.683 156.0,40.3987 157.0,40.1359 157.6115,40.0 158.0,39.9092 159.0,39.8099 160.0,39.7511 161.0,39.7572 162.0,39.7912 163.0,39.8753 163.925,40.0 164.0,40.0112 165.0,40.2028 166.0,40.436 167.0,40.6033 167.7311,41.0 168.0,41.188 169.0,41.6414 169.4853,42.0 170.0,42.4077 170.7696,43.0 171.0,43.2091 171.8654,44.0 172.0,44.1281 172.8052,45.0 173.0,45.2264 173.6407,46.0 174.0,46.5093 174.307,47.0 174.5922,48.0 174.9369,49.0 175.0,49.1339 175.3263,50.0 175.5147,51.0 175.5604,52.0 175.5235,53.0 175.0,53.581 174.0,53.7184 173.0,53.781 172.0,53.9046 171.2542,54.0 171.0,54.0375" stroke="black"/>
  <polyline fill="none" points="138.0,48.864 137.0,48.5622 136.0,48.0086 135.9902,48.0 135.0,47.4044 134.4423,47.0 134.0,46.6396 133.1369,46.0 133.0,45.8727 132.0,45.013 131.9858,45.0 131.092,44.0 131.0,43.8956 130.3501,43.0 130.0,42.5215 129.6504,42.0 129.0,41.0611 128.9438,41.0 129.0,40.7896 130.0,40.3529 131.0,40.5664 132.0,40.91 132.131,41.0 133.0,41.3959 134.0,41.6293 135.0,41.9727 135.0447,42.0 136.0,42.386 137.0,42.5796 138.0,42.9369 138.1546,43.0 139.0,43.2557 139.7397,44.0 139.5979,45.0 139.4341,46.0 139.1887,47.0 139.0,47.5696 138.8499,48.0 138.0,48.864" stroke="black"/>
  <polyline fill="none" points="187.0,51.4032 186.0,51.7631 185.0,51.3357 184.7769,51.0 184.5175,50.0 184.5331,49.0 185.0,48.3581 185.4219,48.0 186.0,47.5094 186.6145,47.0 187.0,46.7208 188.0,46.1441 188.1771,46.0 189.0,45.4037 189.602,45.0 190.0,44.6926 190.9656,44.0 191.0,43.9727 192.0,43.3084 192.3535,43.0 193.0,42.5481 193.7728,42.0 194.0,41.7936 194.8041,41.0 195.0,40.7946 196.0,40.7663 196.1802,41.0 196.1091,42.0 196.0,42.4099 195.8398,43.0 195.4722,44.0 195.0,44.8452 194.8655,45.0 194.2839,46.0 194.0,46.3327 193.3014,47.0 193.0,47.299 192.1549,48.0 192.0,48.1265 191.022,49.0 191.0,49.0198 190.0,49.6768 189.4334,50.0 189.0,50.2736 188.0,50.839 187.7482,51.0 187.0,51.4032" stroke="black"/>
  <polyline fill="none" points="132.0,217.0197 131.0,217.0912 130.0,217.1414 129.0,217.17 128.0,217.1797 127.0,217.1623 126.0,217.1623 125.0,217.1623 124.0,217.1556 123.0,217.15 122.0,217.15 121.0,217.1443 120.0,217.1443 119.0,217.0496 118.0,217.042 117.0,217.0344 116.0,217.0267 115.0,217.0341 114.0,217.0417 113.0,217.0564 112.0,217.0709 111.0,217.2081 110.0,217.1774 109.0,217.1084 108.1389,217.0 108.0,216.98 107.0,216.8345 106.0,216.7102 105.0,216.622 104.0,216.5776 103.0,216.4538 102.0,216.3323 101.0,216.1213 100.5875,216.0 100.0,215.8423 99.0,215.6341 98.0,215.4129 97.0,215.063 96.8361,215.0 96.0,214.7402 95.0,214.424 94.0,214.1274 93.7641,214.0 93.0,213.6619 92.0,213.39 91.09,213.0 91.0,212.9497 90.0,212.5611 89.0,212.2034 88.55,212.0 88.0,211.7326 87.0,211.2708 86.5404,211.0 86.0,210.6698 85.0,210.1855 84.729,210.0 84.0,209.55 83.0249,209.0 83.0,208.9799 82.0,208.3866 81.3909,208.0 81.0,207.7081 80.0,207.1612 79.8158,207.0 79.0,206.4319 78.4065,206.0 78.0,205.679 77.0664,205.0 77.0,204.9375 76.0,204.3006 75.6541,204.0 75.0,203.4665 74.4396,203.0 74.0,202.603 73.2227,202.0 73.0,201.7889 72.0975,201.0 72.0,200.9167 71.0,200.1581 70.8208,200.0 70.0,199.2964 69.6832,199.0 69.0,198.4576 68.5452,198.0 68.0,197.516 67.4116,197.0 67.0,196.6332 66.2435,196.0 66.0,195.7581 65.1231,195.0 65.0,194.883 64.0,194.02 63.9781,194.0 63.0,193.1008 62.8762,193.0 62.0,192.2371 61.7708,192.0 61.0,191.3914 60.6458,191.0 60.0,190.4349 59.5412,190.0 59.0,189.4788 58.4515,189.0 58.0,188.5767 57.4572,188.0 57.0,187.5302 56.4324,187.0 56.0,186.5288 55.45,186.0 55.0,185.4808 54.5994,185.0 54.0,184.3849 53.6497,184.0 53.0,183.2022 52.8214,183.0 52.0,182.1567 51.8444,182.0 51.2797,181.0 51.0,180.7155 50.3378,180.0 50.0,179.5738 49.5378,179.0 49.0,178.3896 48.6492,178.0 48.0,177.2747 47.6942,177.0 47.023,176.0 47.0,175.974 46.2638,175.0 46.0,174.6797 45.5675,174.0 45.0,173.3352 44.6922,173.0 44.1548,172.0 44.0,171.8203 43.4357,171.0 43.0,170.3616 42.7256,170.0 42.3134,169.0 42.0,168.4738 41.6889,168.0 41.2538,167.0 41.0,166.4959 40.7351,166.0 40.3243,165.0 40.0,164.3752 39.7715,164.0 39.454,163.0 39.1872,162.0 39.0,161.6137 38.7029,161.0 38.4917,160.0 38.1558,159.0 38.0,158.0268 37.9949,158.0 37.7681,157.0 37.6189,156.0 37.509,155.0 37.4095,154.0 37.3265,153.0 37.2753,152.0 37.2147,151.0 37.1604,150.0 37.1012,149.0 37.0829,148.0 37.0922,147.0 37.0643,146.0 37.0,145.3037 36.9722,145.0 36.8969,144.0 36.7492,143.0 36.7492,142.0 36.7536,141.0 36.7536,140.0 36.7536,139.0 36.7536,138.0 36.7581,137.0 36.7581,136.0 36.7719,135.0 36.7626,134.0 36.7404,133.0 36.7115,132.0 36.674,131.0 36.6391,130.0 36.6129,129.0 36.5958,128.0 36.6111,127.0 36.634,126.0 36.6811,125.0 36.7511,124.0 36.8579,123.0 37.0,122.0 37.0,121.9998 37.1239,121.0 37.175,120.0 37.1866,119.0 37.2363,118.0 37.294,117.0 37.3311,116.0 37.3557,115.0 37.3958,114.0 37.4461,113.0 37.4774,112.0 37.5359,111.0 37.5825,110.0 37.6855,109.0 37.8308,108.0 37.9721,107.0 38.0,106.8082 38.1075,106.0 38.24,105.0 38.3471,104.0 38.5362,103.0 38.6199,102.0 38.7672,101.0 39.0,100.0575 39.0181,100.0 39.275,99.0 39.4688,98.0 39.7866,97.0 40.0,96.5337 40.2379,96.0 40.616,95.0 41.0,94.2624 41.1853,94.0 41.7542,93.0 42.0,92.7288 42.6717,92.0 43.0,91.6737 43.8152,91.0 44.0,90.8191 45.0,90.2713 45.3397,90.0 46.0,89.5447 47.0,89.1028 47.1343,89.0 48.0,88.5325 49.0,88.1391 49.1927,88.0 50.0,87.5833 51.0,87.253 51.5123,87.0 52.0,86.7635 53.0,86.4613 53.9824,86.0 54.0,85.988 55.0,85.6034 56.0,85.2359 56.4742,85.0 57.0,84.7272 58.0,84.3666 58.754,84.0 59.0,83.8547 60.0,83.4917 61.0,83.1435 61.2604,83.0 62.0,82.639 63.0,82.3631 63.7231,82.0 64.0,81.8345 65.0,81.447 65.8333,81.0 66.0,80.9042 67.0,80.508 68.0,80.003 68.0039,80.0 69.0,79.5256 70.0,79.0953 70.1601,79.0 71.0,78.6018 72.0,78.1152 72.1801,78.0 73.0,77.5286 73.8809,77.0 74.0,76.9176 75.0,76.4778 75.7317,76.0 76.0,75.7994 77.0,75.3799 77.5961,75.0 78.0,74.7077 79.0,74.203 79.2909,74.0 80.0,73.5715 80.7762,73.0 81.0,72.8164 82.0,72.1819 82.2085,72.0 83.0,71.3538 83.366,71.0 84.0,70.4422 84.4935,70.0 85.0,69.541 85.612,69.0 86.0,68.6096 86.6253,68.0 87.0,67.6415 87.6472,67.0 88.0,66.5835 88.4868,66.0 89.0,65.4461 89.3644,65.0 90.0,64.1717 90.1604,64.0 90.7859,63.0 91.0,62.6894 91.4664,62.0 92.0,61.2892 92.2184,61.0 92.7163,60.0 93.0,59.6288 93.472,59.0 94.0,58.0537 94.0409,58.0 94.5875,57.0 95.0,56.2874 95.1962,56.0 95.6264,55.0 96.0,54.3748 96.2494,54.0 96.6241,53.0 97.0,52.3029 97.1981,52.0 97.5718,51.0 98.0,50.1526 98.1021,50.0 98.6053,49.0 99.0,48.428 99.3137,48.0 100.0,47.2706 100.2827,47.0 101.0,46.329 101.6455,46.0 102.0,45.805 103.0,45.4171 104.0,45.0716 104.1622,45.0 105.0,44.6967 106.0,44.435 107.0,44.2636 108.0,44.0198 108.1223,44.0 109.0,43.871 110.0,43.9285 110.475,44.0 111.0,44.0757 112.0,44.1606 113.0,44.4152 113.3682,45.0 113.3221,46.0 113.2937,47.0 113.1038,48.0 113.0155,49.0 113.0,49.0954 112.8699,50.0 112.7605,51.0 112.6794,52.0 112.597,53.0 112.5152,54.0 112.4573,55.0 112.3906,56.0 112.3352,57.0 112.2515,58.0 112.1622,59.0 112.0616,60.0 112.0,60.4446 111.9273,61.0 111.8147,62.0 111.7497,63.0 111.6662,64.0 111.6456,65.0 111.6122,66.0 111.5759,67.0 111.538,68.0 111.5005,69.0 111.4661,70.0 111.4469,71.0 111.4309,72.0 111.4231,73.0 111.4021,74.0 111.3678,75.0 111.3277,76.0 111.2737,77.0 111.2283,78.0 111.1992,79.0 111.0278,80.0 111.0,80.3985 110.9586,81.0 110.8527,82.0 110.736,83.0 110.632,84.0 110.5545,85.0 110.5007,86.0 110.477,87.0 110.4461,88.0 110.4261,89.0 110.4201,90.0 110.4066,91.0 110.3004,92.0 110.0,92.721 109.3249,93.0 109.0,93.0763 108.3285,93.0 108.0,92.9626 107.0,92.8624 106.0,92.7712 105.0,92.7022 104.0,92.6827 103.0,92.6732 102.0,92.5389 101.0,92.5429 100.1422,92.0 100.0,91.8255 99.6016,91.0 99.1299,90.0 99.0,89.8269 98.4992,89.0 98.0,88.4031 97.6589,88.0 97.0,87.3488 96.577,87.0 96.0,86.5099 95.35,86.0 95.0,85.732 94.0,85.2696 93.6257,85.0 93.0,84.6704 92.0,84.3699 91.0,84.0559 90.7814,84.0 90.0,83.8273 89.0,83.6849 88.0,83.5659 87.0,83.5106 86.0,83.5641 85.0,83.6545 84.0,83.8592 83.6506,84.0 83.0,84.2224 82.0,84.4491 81.0,84.9141 80.8876,85.0 80.0,85.4151 79.1725,86.0 79.0,86.1612 78.0625,87.0 78.0,87.0625 77.0,87.9395 76.9423,88.0 76.1879,89.0 76.0,89.2325 75.5296,90.0 75.0,90.9206 74.9303,91.0 74.5022,92.0 74.2226,93.0 74.0,93.4148 73.7123,94.0 73.6472,95.0 73.547,96.0 73.5395,97.0 73.5586,98.0 73.6468,99.0 73.8623,100.0 74.0,100.3084 74.2638,101.0 74.5687,102.0 74.8988,103.0 75.0,103.1206 75.5055,104.0 76.0,104.7813 76.1836,105.0 76.8042,106.0 77.0,106.2448 77.6503,107.0 78.0,107.3167 78.7148,108.0 79.0,108.3119 79.9371,109.0 80.0,109.048 81.0,109.4777 82.0,109.8972 82.2208,110.0 83.0,110.3138 84.0,110.5531 85.0,110.7368 86.0,110.9232 86.4776,111.0 87.0,111.085 87.9526,111.0 88.0,110.9955 89.0,110.8478 90.0,110.6238 91.0,110.4211 92.0,110.0484 92.073,110.0 93.0,109.5707 94.0,109.0704 94.085,109.0 95.0,108.4825 95.5866,108.0 96.0,107.5835 96.6314,107.0 97.0,106.6135 97.5373,106.0 98.0,105.4307 98.3544,105.0 99.0,104.013 99.0105,104.0 99.5068,103.0 100.0,102.2603 101.0,102.1492 102.0,102.1604 103.0,102.2442 104.0,102.3591 105.0,102.4031 106.0,102.5129 107.0,102.6338 108.0,102.708 109.0,102.8749 109.2522,103.0 110.0,103.3226 110.4776,104.0 110.5054,105.0 110.6009,106.0 110.7328,107.0 110.9107,108.0 111.0,108.2976 111.1917,109.0 111.3778,110.0 111.4576,111.0 111.5889,112.0 111.8059,113.0 112.0,113.4155 112.2456,114.0 112.473,115.0 112.7943,116.0 113.0,116.3779 113.304,117.0 113.6215,118.0 113.9586,119.0 114.0,119.0556 114.4517,120.0 115.0,120.908 115.0827,121.0 115.5408,122.0 116.0,122.6036 116.3469,123.0 117.0,123.7464 117.2305,124.0 118.0,124.8587 118.1625,125.0 119.0,125.8306 119.1708,126.0 120.0,126.6419 120.4205,127.0 121.0,127.4873 121.7252,128.0 122.0,128.1943 123.0,128.7104 123.4279,129.0 124.0,129.3608 125.0,129.7413 125.4495,130.0 126.0,130.3516 127.0,130.6892 127.6534,131.0 128.0,131.193 129.0,131.5029 130.0,131.7956 130.5508,132.0 131.0,132.1893 132.0,132.5309 133.0,132.8279 133.3081,133.0 134.0,133.3606 135.0,133.6641 135.645,134.0 136.0,134.2178 137.0,134.4907 138.0,134.9656 138.0584,135.0 139.0,135.4119 140.0,135.7545 140.4939,136.0 141.0,136.2456 142.0,136.6451 142.6765,137.0 143.0,137.1809 144.0,137.7237 144.356,138.0 145.0,138.472 145.644,139.0 146.0,139.3013 146.645,140.0 147.0,140.375 147.4902,141.0 148.0,141.6582 148.3158,142.0 148.72,143.0 149.0,143.3873 149.3799,144.0 149.5938,145.0 149.9656,146.0 150.0,146.0833 150.2797,147.0 150.4381,148.0 150.5498,149.0 150.6192,150.0 150.6587,151.0 150.7,152.0 150.7395,153.0 150.7994,154.0 150.8673,155.0 150.8979,156.0 150.8916,157.0 150.8673,158.0 150.8444,159.0 150.8161,160.0 150.8226,161.0 150.8226,162.0 150.8279,163.0 150.8226,164.0 150.8161,165.0 150.8097,166.0 150.8032,167.0 150.8109,168.0 150.8279,169.0 150.8388,170.0 150.8444,171.0 150.8226,172.0 150.787,173.0 150.75,174.0 150.7189,175.0 150.6622,176.0 150.6361,177.0 150.5944,178.0 150.5625,179.0 150.5547,180.0 150.5704,181.0 150.5995,182.0 150.6211,183.0 150.5966,184.0 150.5752,185.0 150.5394,186.0 150.4925,187.0 150.4362,188.0 150.386,189.0 150.3447,190.0 150.3218,191.0 150.3071,192.0 150.2956,193.0 150.273,194.0 150.2394,195.0 150.1851,196.0 150.1215,197.0 150.0625,198.0 150.0267,199.0 150.0,199.175 149.8854,200.0 149.8615,201.0 149.807,202.0 149.7456,203.0 149.675,204.0 149.5984,205.0 149.5103,206.0 149.447,207.0 149.3307,208.0 149.1801,209.0 149.0,209.3415 148.6897,210.0 148.3979,211.0 148.0,211.7048 147.8042,212.0 147.1765,213.0 147.0,213.1592 146.0156,214.0 146.0,214.0156 145.0,214.5966 144.1235,215.0 144.0,215.0731 143.0,215.5 142.0,215.7053 141.3258,216.0 141.0,216.1569 140.0,216.4029 139.0,216.5027 138.0,216.5809 137.0,216.6697 136.0,216.7393 135.0,216.8627 134.0,216.8885 133.0,216.9504 132.2778,217.0 132.0,217.0197" stroke="black"/>
  <polyline fill="none" points="191.0,134.0978 190.8839,134.0 190.4729,133.0 190.4953,132.0 190.4974,131.0 190.4227,130.0 190.373,129.0 190.3352,128.0 190.3453,127.0 190.3834,126.0 190.4323,125.0 190.4712,124.0 190.4974,123.0 190.5183,122.0 190.5417,121.0 190.5625,120.0 190.5968,119.0 190.6052,118.0 190.6223,117.0 190.6448,116.0 190.6818,115.0 190.7485,114.0 190.8191,113.0 190.8757,112.0 190.9694,111.0 191.0,110.1994 191.0078,110.0 191.066,109.0 191.1416,108.0 191.2059,107.0 191.2631,106.0 191.3011,105.0 191.324,104.0 191.4011,103.0 191.421,102.0 191.4508,101.0 191.4897,100.0 191.5208,99.0 191.5555,98.0 191.5838,97.0 191.5978,96.0 191.6926,95.0 191.726,94.0 191.7754,93.0 191.8356,92.0 191.9167,91.0 192.0,90.1786 192.02,90.0 192.0784,89.0 192.0971,88.0 192.1385,87.0 192.1721,86.0 192.2205,85.0 192.2633,84.0 192.2983,83.0 192.3342,82.0 192.3691,81.0 192.3923,80.0 192.4021,79.0 192.4295,78.0 192.4059,77.0 192.3224,76.0 192.1819,75.0 192.0,74.1892 191.9505,74.0 191.7072,73.0 191.5706,72.0 191.3661,71.0 191.0,70.0338 190.9797,70.0 190.4194,69.0 190.0,68.5085 189.4875,68.0 189.0,67.5821 188.161,67.0 188.0,66.885 187.0,66.5063 186.0,66.2291 185.0,66.1782 184.0,66.1737 183.0,66.2723 182.0,66.4532 181.0,66.6499 180.0,66.8919 179.7341,67.0 179.0,67.2508 178.0,67.485 177.0,67.768 176.372,68.0 176.0,68.1478 175.0,68.5031 174.0,68.6536 173.0574,69.0 173.0,69.0267 172.0,69.4321 171.0,69.7723 170.4459,70.0 170.0,70.1893 169.0,70.5582 168.0,70.8863 167.8203,71.0 167.0,71.4013 166.0,71.5365 165.0,71.7097 164.0,71.8925 163.585,72.0 163.0,72.1462 162.0,72.345 161.0,72.44 160.0,72.46 159.0,72.4641 158.0,72.4484 157.0,72.4183 156.0,72.3591 155.0,72.275 154.0,72.1587 153.0,72.0278 152.6963,72.0 152.0,71.9385 151.0,71.7391 150.0,71.648 149.0,71.5141 148.0,71.3627 147.0,71.1836 146.318,71.0 146.0,70.9046 145.0,70.6626 144.0,70.5275 143.0,70.3073 142.0079,70.0 142.0,69.9966 141.0,69.6677 140.0,69.4814 139.0,69.1618 138.7034,69.0 138.0,68.6806 137.0,68.304 136.3503,68.0 136.0,67.8317 135.0,67.3903 134.2785,67.0 134.0,66.822 133.0,66.396 132.2651,66.0 132.0,65.822 131.0,65.4345 130.2415,65.0 130.0,64.8273 129.0,64.3957 128.1904,64.0 128.0,63.8848 127.0,63.4368 126.2737,63.0 126.0,62.7879 125.0,62.4437 124.3265,62.0 124.0,61.7671 123.0,61.3987 122.3877,61.0 122.0,60.5701 121.6235,60.0 121.7672,59.0 121.8011,58.0 121.9232,57.0 122.0,56.5932 122.111,56.0 122.2277,55.0 122.3812,54.0 122.4414,53.0 123.0,52.31 123.787,53.0 124.0,53.2085 124.7857,54.0 125.0,54.1885 126.0,54.9836 126.0168,55.0 127.0,55.6998 127.353,56.0 128.0,56.4839 128.8147,57.0 129.0,57.1673 130.0,57.7081 130.4575,58.0 131.0,58.3359 132.0,58.7961 132.3358,59.0 133.0,59.3858 134.0,59.7962 134.3822,60.0 135.0,60.2925 136.0,60.6614 136.7916,61.0 137.0,61.1103 138.0,61.4947 139.0,61.7543 139.6005,62.0 140.0,62.1826 141.0,62.4422 142.0,62.6661 143.0,62.9428 143.1095,63.0 144.0,63.3215 145.0,63.4595 146.0,63.6768 147.0,63.9722 147.0889,64.0 148.0,64.228 149.0,64.3718 150.0,64.497 151.0,64.5843 152.0,64.7317 153.0,64.8017 154.0,64.9172 154.5476,65.0 155.0,65.0725 156.0,65.1863 157.0,65.2645 158.0,65.3271 159.0,65.3597 160.0,65.3709 161.0,65.418 162.0,65.4538 163.0,65.4514 164.0,65.4465 165.0,65.4471 166.0,65.4418 167.0,65.4274 168.0,65.404 169.0,65.3973 170.0,65.3683 171.0,65.3088 172.0,65.21 173.0,65.0789 173.5833,65.0 174.0,64.9444 175.0,64.8758 176.0,64.7201 177.0,64.669 178.0,64.5753 179.0,64.4534 180.0,64.3449 181.0,64.2544 182.0,64.1204 182.792,64.0 183.0,63.9653 184.0,63.6961 185.0,63.599 186.0,63.3812 187.0,63.1441 187.3571,63.0 188.0,62.7673 189.0,62.516 190.0,62.0956 190.1593,62.0 191.0,61.6436 192.0,61.3109 192.5173,61.0 193.0,60.7007 194.0,60.2541 194.3541,60.0 195.0,59.6043 196.0,59.0114 196.0129,59.0 197.0,58.2857 197.4136,58.0 198.0,57.6127 199.0,57.2791 199.3949,58.0 199.3273,59.0 199.2594,60.0 199.2519,61.0 199.1091,62.0 199.1214,63.0 199.0,63.7937 198.9654,64.0 198.9167,65.0 198.8485,66.0 198.7951,67.0 198.7583,68.0 198.7142,69.0 198.669,70.0 198.641,71.0 198.5962,72.0 198.5471,73.0 198.5094,74.0 198.4971,75.0 198.4634,76.0 198.4083,77.0 198.3891,78.0 198.3992,79.0 198.3473,80.0 198.3296,81.0 198.3019,82.0 198.2738,83.0 198.2448,84.0 198.2116,85.0 198.1783,86.0 198.151,87.0 198.0838,88.0 198.0636,89.0 198.0352,90.0 198.0,90.9288 197.9972,91.0 197.9455,92.0 197.891,93.0 197.8526,94.0 197.8478,95.0 197.8026,96.0 197.8077,97.0 197.8129,98.0 197.8235,99.0 197.8345,100.0 197.8524,101.0 197.8699,102.0 197.8822,103.0 197.7991,104.0 197.7701,105.0 197.7337,106.0 197.7127,107.0 197.7135,108.0 197.706,109.0 197.6983,110.0 197.687,111.0 197.6551,112.0 197.6694,113.0 197.6694,114.0 197.6586,115.0 197.6747,116.0 197.6929,117.0 197.6747,118.0 197.6337,119.0 197.5345,120.0 197.4738,121.0 197.3688,122.0 197.2226,123.0 197.0,123.8295 196.9444,124.0 196.6753,125.0 196.405,126.0 196.1827,127.0 196.0,127.2579 195.5795,128.0 195.0,129.0 195.0,129.0 194.3765,130.0 194.0,130.4605 193.5161,131.0 193.0,131.6299 192.7268,132.0 192.0,132.9766 191.9728,133.0 191.0963,134.0 191.0,134.0978" stroke="black"/>
  <polyline fill="none" points="64.0,69.053 63.0,69.4352 62.2988,69.0 62.0,68.7533 61.4908,68.0 61.0,67.3027 60.7601,67.0 60.2698,66.0 60.0,65.4488 59.7693,65.0 59.5775,64.0 59.4641,63.0 59.582,62.0 60.0,61.1187 60.0721,61.0 60.7559,60.0 61.0,59.7397 62.0,59.1469 62.222,59.0 63.0,58.58 64.0,58.4144 65.0,58.3578 66.0,58.3667 67.0,58.479 68.0,58.6352 69.0,58.8786 69.2511,59.0 70.0,59.3105 71.0,59.5536 71.8657,60.0 72.0,60.0963 73.0,60.581 73.7327,61.0 74.0,61.1719 75.0,61.5949 75.5552,62.0 75.2214,63.0 75.0,63.1661 74.0,63.664 73.4598,64.0 73.0,64.3488 72.0,64.7456 71.7023,65.0 71.0,65.5021 70.1168,66.0 70.0,66.0988 69.0,66.57 68.1179,67.0 68.0,67.0828 67.0,67.5728 66.1476,68.0 66.0,68.0959 65.0,68.5555 64.0842,69.0 64.0,69.053" stroke="black"/>
  <polyline fill="none" points="215.0,189.1556 214.0,189.1146 213.3654,189.0 213.0,188.9228 212.0,188.2862 211.7215,188.0 211.0,187.0812 210.9252,187.0 210.4845,186.0 210.2877,185.0 210.3144,184.0 210.3457,183.0 210.315,182.0 210.282,181.0 210.2703,180.0 210.2762,179.0 210.2878,178.0 210.2977,177.0 210.2994,176.0 210.2044,175.0 210.1981,174.0 210.193,173.0 210.1879,172.0 210.1774,171.0 210.1721,170.0 210.1667,169.0 210.1667,168.0 210.1207,167.0 210.15,166.0 210.2044,165.0 210.2708,164.0 210.3305,163.0 210.3824,162.0 210.4201,161.0 210.4369,160.0 210.4356,159.0 210.4665,158.0 210.5026,157.0 210.513,156.0 210.5052,155.0 210.5132,154.0 210.55,153.0 210.5847,152.0 210.6478,151.0 210.6658,150.0 210.6994,149.0 210.7398,148.0 210.7761,147.0 210.8006,146.0 210.8203,145.0 210.8245,144.0 210.8121,143.0 210.8214,142.0 210.8377,141.0 210.8715,140.0 210.9234,139.0 210.9884,138.0 211.0,137.7857 211.0414,137.0 211.0693,136.0 211.1797,135.0 211.2922,134.0 211.3984,133.0 211.5098,132.0 211.744,131.0 212.0,130.462 212.2226,130.0 212.5735,129.0 213.0,128.157 213.0964,128.0 213.5691,127.0 214.0,126.4172 214.3258,126.0 215.0,125.0625 215.0591,125.0 216.0,124.0 216.0,124.0 216.8921,123.0 217.0,122.8942 217.8521,122.0 218.0,121.8461 218.8066,121.0 219.0,120.7786 219.8031,120.0 220.0,119.7984 220.6226,119.0 221.0,118.5774 221.4712,118.0 222.0,117.2459 222.2027,117.0 222.8039,116.0 223.0,115.76 223.5318,115.0 224.0,114.2532 224.1819,114.0 224.645,113.0 225.0,112.4095 225.2449,112.0 225.656,111.0 226.0,110.1626 226.0929,110.0 226.502,109.0 226.7461,108.0 227.0,107.1834 227.0684,107.0 227.2935,106.0 227.4312,105.0 227.5225,104.0 227.6183,103.0 227.6474,102.0 227.6823,101.0 227.7114,100.0 227.7172,99.0 227.6997,98.0 227.6707,97.0 227.6474,96.0 227.6886,95.0 227.6688,94.0 227.6304,93.0 227.5711,92.0 227.4837,91.0 227.3651,90.0 227.2258,89.0 227.1258,88.0 227.0,87.5731 226.8277,87.0 226.5694,86.0 226.3856,85.0 226.1604,84.0 226.0,83.6837 225.6866,83.0 225.3814,82.0 225.0,81.2708 224.8075,81.0 224.2861,80.0 224.0,79.6736 223.4761,79.0 223.0,78.299 222.7148,78.0 222.0,77.115 221.8968,77.0 221.0,76.2111 220.8009,76.0 220.0,75.2898 219.651,75.0 219.0,74.4885 218.3782,74.0 218.0,73.7073 217.0,73.1724 216.7722,73.0 216.0,72.5634 215.0,72.1485 214.6964,72.0 214.0,71.7022 213.0,71.341 212.2482,71.0 212.0,70.8656 211.0,70.6375 210.0,70.2707 209.7314,70.0 209.6796,69.0 209.7029,68.0 209.7681,67.0 209.7941,66.0 209.8852,65.0 210.0,64.3503 210.0615,64.0 210.0757,63.0 210.1151,62.0 210.0111,61.0 210.1439,60.0 211.0,59.3236 212.0,59.7666 212.3579,60.0 213.0,60.392 214.0,60.7885 214.4654,61.0 215.0,61.2311 216.0,61.5631 217.0,61.7885 217.4588,62.0 218.0,62.2463 219.0,62.4973 220.0,62.6839 221.0,62.9591 221.1135,63.0 222.0,63.2618 223.0,63.3906 224.0,63.7027 224.9547,64.0 225.0,64.0181 226.0,64.2911 227.0,64.4451 228.0,64.6823 228.8036,65.0 229.0,65.0948 230.0,65.4627 231.0,65.7404 231.3986,66.0 232.0,66.4158 233.0,66.9576 233.057,67.0 234.0,67.5909 234.509,68.0 235.0,68.3563 235.6827,69.0 236.0,69.3713 236.5308,70.0 237.0,70.6074 237.2944,71.0 237.84,72.0 238.0,72.2268 238.4685,73.0 239.0,73.9929 239.005,74.0 239.5552,75.0 240.0,75.9253 240.0492,76.0 240.4835,77.0 240.8764,78.0 241.0,78.281 241.2718,79.0 241.5645,80.0 241.7754,81.0 242.0,81.6416 242.1363,82.0 242.2824,83.0 242.3098,84.0 242.33,85.0 242.3611,86.0 242.3773,87.0 242.4166,88.0 242.4196,89.0 242.4246,90.0 242.4318,91.0 242.4398,92.0 242.4448,93.0 242.4526,94.0 242.4549,95.0 242.4367,96.0 242.3961,97.0 242.3332,98.0 242.2738,99.0 242.2103,100.0 242.1217,101.0 242.0127,102.0 242.0,102.137 241.9239,103.0 241.7139,104.0 241.6612,105.0 241.5882,106.0 241.4982,107.0 241.3819,108.0 241.1843,109.0 241.0,109.6283 240.8856,110.0 240.7316,111.0 240.5047,112.0 240.3892,113.0 240.1022,114.0 240.0,114.2296 239.7145,115.0 239.4796,116.0 239.1646,117.0 239.0,117.2687 238.5652,118.0 238.2419,119.0 238.0,119.3079 237.5192,120.0 237.0,120.9395 236.9522,121.0 236.3014,122.0 236.0,122.3483 235.4486,123.0 235.0,123.4587 234.4494,124.0 234.0,124.4369 233.2655,125.0 233.0,125.2319 232.0,125.8957 231.8878,126.0 231.0,126.6481 230.5588,127.0 230.0,127.4148 229.2924,128.0 229.0,128.2521 228.0829,129.0 228.0,129.0818 227.0,129.9576 226.9576,130.0 226.0,130.9648 225.9648,131.0 225.1713,132.0 225.0,132.2043 224.3504,133.0 224.0,133.4856 223.6292,134.0 223.1146,135.0 223.0,135.1486 222.4808,136.0 222.1066,137.0 222.0,137.1726 221.6006,138.0 221.3583,139.0 221.0414,140.0 221.0,140.0932 220.6977,141.0 220.5259,142.0 220.4251,143.0 220.282,144.0 220.2253,145.0 220.1267,146.0 220.0039,147.0 220.0,147.0294 219.8846,148.0 219.7919,149.0 219.7171,150.0 219.6694,151.0 219.6399,152.0 219.6295,153.0 219.612,154.0 219.5964,155.0 219.5859,156.0 219.5859,157.0 219.5881,158.0 219.5911,159.0 219.5807,160.0 219.5807,161.0 219.5755,162.0 219.5807,163.0 219.5964,164.0 219.612,165.0 219.6328,166.0 219.6432,167.0 219.718,168.0 219.7544,169.0 219.807,170.0 219.85,171.0 219.8908,172.0 219.9361,173.0 219.996,174.0 220.0,174.0833 220.043,175.0 220.1941,176.0 220.1767,177.0 220.1276,178.0 220.0192,179.0 220.0,179.1136 219.8664,180.0 219.7078,181.0 219.5546,182.0 219.4557,183.0 219.2995,184.0 219.0,184.8651 218.937,185.0 218.567,186.0 218.0615,187.0 218.0,187.0676 217.2607,188.0 217.0,188.2724 216.0,188.8885 215.6184,189.0 215.0,189.1556" stroke="black"/>
  <polyline fill="none" points="132.0,77.0447 131.0,77.1034 130.9155,77.0 131.0,76.8099 132.0,76.9185 132.0372,77.0 132.0,77.0447" stroke="black"/>
  <polyline fill="none" points="156.0,113.324 155.0,113.5816 154.0,113.5051 153.6598,113.0 154.0,112.5726 154.3941,112.0 155.0,111.1664 155.1391,111.0 155.5153,110.0 155.9813,109.0 156.0,108.9671 156.367,108.0 156.5616,107.0 156.7045,106.0 156.6842,105.0 156.5923,104.0 156.4157,103.0 156.1589,102.0 156.0,101.7573 155.6087,101.0 155.1332,100.0 155.0,99.8205 154.4547,99.0 154.0,98.4635 153.5922,98.0 153.0,97.2515 152.7722,97.0 152.0,96.2848 151.7094,96.0 151.0,95.4584 150.2932,95.0 150.0,94.751 149.0,94.3806 148.051,94.0 148.0,93.9686 147.0,93.6197 146.0,93.0777 145.9415,93.0 146.0,92.9415 147.0,92.2871 147.4265,92.0 148.0,91.6534 149.0,91.171 149.2511,91.0 150.0,90.6177 151.0,90.1318 151.1613,90.0 152.0,89.4282 152.6913,89.0 153.0,88.7829 154.0,88.2853 154.4218,88.0 155.0,87.6112 156.0,87.1012 156.138,87.0 157.0,86.502 157.9412,86.0 158.0,85.954 159.0,85.4329 159.568,85.0 160.0,84.6663 161.0,84.2806 161.349,84.0 162.0,83.5398 162.9119,83.0 163.0,82.9333 164.0,82.3859 164.5881,82.0 165.0,81.6923 166.0,81.2989 166.6711,81.0 167.0,80.827 168.0,80.6889 169.0,80.5959 170.0,80.4182 171.0,80.1943 171.5446,80.0 172.0,79.8332 173.0,79.5573 174.0,79.3126 175.0,79.0403 175.0724,79.0 176.0,78.6497 177.0,78.399 177.9016,78.0 178.0,77.9438 179.0,77.6033 180.0,77.3319 180.8151,77.0 181.0,76.9033 181.1771,77.0 181.9111,78.0 181.8572,79.0 181.8382,80.0 181.605,81.0 181.0,81.54 180.0492,82.0 180.0,82.0336 179.0,82.6494 178.4877,83.0 178.0,83.3588 177.0,83.9167 176.8985,84.0 176.0,84.6097 175.488,85.0 175.0,85.3472 174.0,85.8884 173.874,86.0 173.0,86.5321 172.3079,87.0 172.0,87.2262 171.0,87.8207 170.7688,88.0 170.0,88.5186 169.322,89.0 169.0,89.2721 168.0689,90.0 168.0,90.0588 167.126,91.0 167.0,91.147 166.3797,92.0 166.0,92.4972 165.6591,93.0 165.3104,94.0 165.0,94.689 164.8333,95.0 164.5786,96.0 164.4823,97.0 164.3508,98.0 164.2485,99.0 164.238,100.0 164.3232,101.0 164.447,102.0 164.5383,103.0 164.7222,104.0 165.0,104.7661 165.1028,105.0 165.3428,106.0 165.5537,107.0 165.6528,108.0 165.0,108.6714 164.4307,109.0 164.0,109.2544 163.0,109.7484 162.6468,110.0 162.0,110.375 161.0,110.85 160.8171,111.0 160.0,111.5063 159.1404,112.0 159.0,112.1177 158.0,112.5683 157.0,112.9051 156.8169,113.0 156.0,113.324" stroke="black"/>
  <polyline fill="none" points="137.0,87.3576 136.0,87.5101 135.0,87.6504 134.0,87.1458 133.8733,87.0 134.0,86.8528 135.0,86.203 135.2206,86.0 136.0,85.384 136.6105,85.0 137.0,84.7152 137.9154,84.0 138.0,83.9232 139.0,83.3357 139.4443,83.0 140.0,82.5247 140.7192,82.0 141.0,81.7871 142.0,81.1182 142.1495,81.0 143.0,80.5053 143.77,80.0 144.0,79.817 145.0,79.8499 145.625,80.0 146.0,80.0958 147.0,80.3292 148.0,80.5685 148.5331,81.0 148.0,81.4618 147.2891,82.0 147.0,82.2161 146.0,82.7506 145.6305,83.0 145.0,83.3814 144.0,83.8673 143.821,84.0 143.0,84.5081 142.0397,85.0 142.0,85.0273 141.0,85.5208 140.1231,86.0 140.0,86.0834 139.0,86.4601 138.0,86.8617 137.7539,87.0 137.0,87.3576" stroke="black"/>
  <polyline fill="none" points="209.0,118.0995 208.0,118.7116 207.4142,118.0 207.3443,117.0 207.3033,116.0 207.259,115.0 207.2401,114.0 207.2034,113.0 207.1706,112.0 207.1201,111.0 207.1018,110.0 207.0818,109.0 207.0689,108.0 207.0622,107.0 207.0772,106.0 207.0919,105.0 207.1056,104.0 207.1402,103.0 207.1476,102.0 207.1612,101.0 207.1877,100.0 207.2135,99.0 207.2439,98.0 207.268,97.0 207.2828,96.0 207.3295,95.0 207.3465,94.0 207.3677,93.0 207.3935,92.0 207.4213,91.0 207.4414,90.0 207.4873,89.0 207.5507,88.0 207.7643,87.0 207.9207,86.0 207.8123,85.0 207.8834,84.0 208.0,83.0904 208.1249,83.0 209.0,82.2083 210.0,82.4643 210.625,83.0 211.0,83.2368 212.0,83.9286 212.0417,84.0 213.0,84.4259 214.0,84.9356 214.0379,85.0 214.4479,86.0 215.0,86.7178 215.6271,87.0 216.0,87.5593 216.6712,87.0 217.0,86.9671 217.0128,87.0 217.1417,88.0 217.2424,89.0 217.3514,90.0 217.4486,91.0 217.5322,92.0 217.5748,93.0 217.6106,94.0 217.6608,95.0 217.6564,96.0 217.6564,97.0 217.6528,98.0 217.6401,99.0 217.6257,100.0 217.6027,101.0 217.5811,102.0 217.5703,103.0 217.4949,104.0 217.4086,105.0 217.3192,106.0 217.1444,107.0 217.0,107.3824 216.8019,108.0 216.6144,109.0 216.3201,110.0 216.0,110.5966 215.7822,111.0 215.2972,112.0 215.0,112.3444 214.462,113.0 214.0,113.4942 213.5421,114.0 213.0,114.515 212.4261,115.0 212.0,115.4211 211.3813,116.0 211.0,116.3333 210.1921,117.0 210.0,117.2102 209.1138,118.0 209.0,118.0995" stroke="black"/>
  <polyline fill="none" points="216.0,86.7903 215.5317,86.0 216.0,85.2975 216.2073,86.0 216.0,86.7903" stroke="black"/>
  <polyline fill="none" points="175.0,102.375 174.0,102.0045 173.9958,102.0 173.8333,101.0 174.0,100.0192 174.004,100.0 174.2544,99.0 174.4902,98.0 174.8985,97.0 175.0,96.8804 175.6979,96.0 176.0,95.7434 177.0,95.1027 177.1165,95.0 178.0,94.3899 178.6918,94.0 179.0,93.8011 180.0,93.2723 180.597,93.0 181.0,92.7786 181.2857,93.0 181.4997,94.0 181.4396,95.0 181.4309,96.0 181.3812,97.0 181.2284,98.0 181.0,98.2643 180.0965,99.0 180.0,99.0799 179.0,99.7452 178.6581,100.0 178.0,100.4451 177.1193,101.0 177.0,101.0963 176.0,101.6386 175.5181,102.0 175.0,102.375" stroke="black"/>
  <polyline fill="none" points="89.0,100.1649 88.0,100.3848 87.0,100.4286 86.0,100.1238 85.6745,100.0 85.0,99.7471 84.0883,99.0 84.0,98.8802 83.5387,98.0 83.3326,97.0 83.4163,96.0 83.8392,95.0 84.0,94.8207 85.0,94.0694 85.1533,94.0 86.0,93.6907 87.0,93.568 88.0,93.7427 88.5279,94.0 89.0,94.2221 90.0,94.9056 90.0973,95.0 90.6571,96.0 91.0,96.9768 91.0122,97.0 91.0,97.0985 90.8975,98.0 90.4286,99.0 90.0,99.5674 89.2774,100.0 89.0,100.1649" stroke="black"/>
  <polyline fill="none" points="122.0,105.5657 121.0,105.6824 120.6249,105.0 120.7985,104.0 120.6505,103.0 120.671,102.0 120.6188,101.0 120.6241,100.0 120.5847,99.0 120.6069,98.0 120.5875,97.0 120.9794,96.0 121.0,95.9802 122.0,95.6584 123.0,95.5853 124.0,95.7983 124.5393,96.0 125.0,96.1696 126.0,96.372 127.0,96.6241 128.0,96.9727 128.0542,97.0 129.0,97.329 130.0,97.4239 131.0,97.4908 132.0,97.9305 132.0626,98.0 132.0,98.0689 131.1535,99.0 131.0,99.1308 130.0,99.686 129.5549,100.0 129.0,100.4044 128.1055,101.0 128.0,101.0889 127.0,101.7051 126.5856,102.0 126.0,102.3988 125.2344,103.0 125.0,103.1961 124.0,103.8584 123.8421,104.0 123.0,104.718 122.6923,105.0 122.0,105.5657" stroke="black"/>
  <polyline fill="none" points="143.0,110.2755 142.0,110.2604 141.323,110.0 141.0,109.8584 140.0,109.5343 139.0,109.2353 138.4285,109.0 138.0,108.825 137.0,108.5523 136.0,108.3176 135.0,108.008 134.9902,108.0 134.9804,107.0 135.0,106.984 136.0,106.294 136.4274,106.0 137.0,105.6068 137.9696,105.0 138.0,104.9738 139.0,104.3661 139.6211,104.0 140.0,103.7348 141.0,103.3399 141.7659,103.0 142.0,102.8528 143.0,102.5514 144.0,102.4316 145.0,102.5032 145.8021,103.0 146.0,103.1449 146.6849,104.0 147.0,104.6366 147.2079,105.0 147.0277,106.0 147.0,106.0369 146.5286,107.0 146.0,107.6786 145.6742,108.0 145.0,108.6696 144.6429,109.0 144.0,109.4804 143.3273,110.0 143.0,110.2755" stroke="black"/>
  <polyline fill="none" points="104.4394,210.0 105.0,209.8733 106.0,209.6553 107.0,209.3862 107.7167,209.0 108.0,208.8333 109.0,208.4031 109.6028,208.0 110.0,207.7185 110.9118,207.0 111.0,206.9139 111.8711,206.0 112.0,205.854 112.5421,205.0 113.0,204.2238 113.1556,204.0 113.5121,203.0 113.7753,202.0 114.0,201.5449 114.25,201.0 114.492,200.0 114.747,199.0 114.8615,198.0 115.0,197.4143 115.1058,197.0 115.2946,196.0 115.4101,195.0 115.4974,194.0 115.5763,193.0 115.6332,192.0 115.756,191.0 115.7844,190.0 115.8423,189.0 115.9296,188.0 116.0,187.3667 116.0414,187.0 116.1385,186.0 116.1981,185.0 116.2273,184.0 116.3066,183.0 116.3324,182.0 116.3777,181.0 116.422,180.0 116.4524,179.0 116.4738,178.0 116.482,177.0 116.4846,176.0 116.5216,175.0 116.5432,174.0 116.5852,173.0 116.6341,172.0 116.6886,171.0 116.7398,170.0 116.7774,169.0 116.7969,168.0 116.8322,167.0 116.8221,166.0 116.8032,165.0 116.7774,164.0 116.7413,163.0 116.6934,162.0 116.6429,161.0 116.614,160.0 116.5223,159.0 116.4212,158.0 116.3033,157.0 116.0693,156.0 116.0,155.8362 115.7244,155.0 115.4635,154.0 115.0,153.0934 114.9325,153.0 114.489,152.0 114.0,151.314 113.7336,151.0 113.0,150.0785 112.9307,150.0 112.2092,149.0 112.0,148.7878 111.1736,148.0 111.0,147.8244 110.2174,147.0 110.0,146.8065 109.183,146.0 109.0,145.8197 108.0861,145.0 108.0,144.9139 107.0,144.0853 106.9134,144.0 106.0,143.2635 105.688,143.0 105.0,142.468 104.4597,142.0 104.0,141.5637 103.3086,141.0 103.0,140.75 102.0669,140.0 102.0,139.9375 101.0,139.2717 100.6926,139.0 100.0,138.5 99.355,138.0 99.0,137.7147 98.0,137.0039 97.9956,137.0 97.0,136.3363 96.5922,136.0 96.0,135.5804 95.3125,135.0 95.0,134.7083 94.1267,134.0 94.0,133.8688 93.0,133.1372 92.8471,133.0 92.0,132.3673 91.5839,132.0 91.0,131.5145 90.3031,131.0 90.0,130.7308 89.1057,130.0 89.0,129.9077 88.0,129.1277 87.8494,129.0 87.0,128.3353 86.5887,128.0 86.0,127.5344 85.2851,127.0 85.0,126.7653 84.0,126.0119 83.987,126.0 83.0,125.2677 82.6783,125.0 82.0,124.4883 81.332,124.0 81.0,123.7544 80.0,123.1731 79.8075,123.0 79.0,122.4927 78.21,122.0 78.0,121.8332 77.0,121.3014 76.5567,121.0 76.0,120.5682 75.1046,120.0 75.0,119.9249 74.0,119.3149 73.5347,119.0 73.0,118.5989 72.0,118.0903 71.8996,118.0 71.0,117.3906 70.2662,117.0 70.0,116.8104 69.0,116.2897 68.56,116.0 68.0,115.6424 67.0,115.0968 66.8701,115.0 66.0,114.4925 65.0151,114.0 65.0,113.9889 64.0,113.4822 63.15,113.0 63.0,112.8884 62.0,112.4756 61.1333,112.0 61.0,111.9134 60.0,111.4905 59.0,111.1619 58.6689,111.0 58.0,110.7 57.0,110.3524 56.0,110.0761 55.8765,110.0 55.0,109.6294 54.0,109.4863 53.0,109.2599 52.0,109.0282 51.7667,109.0 51.0,108.9173 50.0,108.9586 49.7381,109.0 49.0,109.1157 48.0,109.25 47.0,109.473 46.0,109.8556 45.7926,110.0 45.0,110.4257 44.0519,111.0 44.0,111.0435 43.0,111.6881 42.7195,112.0 42.0,112.7469 41.7386,113.0 41.1243,114.0 41.0,114.1565 40.4868,115.0 40.1058,116.0 40.0,116.1724 39.6108,117.0 39.3898,118.0 39.2683,119.0 39.0,119.9778 38.9922,120.0 38.8642,121.0 38.718,122.0 38.612,123.0 38.5446,124.0 38.5142,125.0 38.5074,126.0 38.5128,127.0 38.5108,128.0 38.5082,129.0 38.5056,130.0 38.5104,131.0 38.5174,132.0 38.531,133.0 38.5446,134.0 38.5534,135.0 38.5608,136.0 38.5629,137.0 38.5629,138.0 38.5656,139.0 38.5677,140.0 38.5704,141.0 38.5704,142.0 38.5704,143.0 38.6164,144.0 38.6595,145.0 38.7198,146.0 38.7798,147.0 38.8489,148.0 38.9597,149.0 39.0,149.2232 39.1277,150.0 39.2234,151.0 39.3559,152.0 39.4246,153.0 39.5329,154.0 39.7172,155.0 40.0,155.8635 40.0566,156.0 40.3226,157.0 40.6072,158.0 40.9316,159.0 41.0,159.1028 41.423,160.0 41.7123,161.0 42.0,161.4889 42.2925,162.0 42.6559,163.0 43.0,163.5148 43.3226,164.0 43.7539,165.0 44.0,165.3449 44.4673,166.0 45.0,166.96 45.028,167.0 45.7059,168.0 46.0,168.3232 46.5927,169.0 47.0,169.5092 47.4403,170.0 48.0,170.553 48.4013,171.0 49.0,171.6291 49.3667,172.0 50.0,172.5843 50.4157,173.0 51.0,173.5754 51.4891,174.0 52.0,174.5109 52.569,175.0 53.0,175.3797 53.7188,176.0 54.0,176.258 54.8893,177.0 55.0,177.1082 56.0,177.8854 56.1162,178.0 57.0,178.7994 57.2059,179.0 58.0,179.7642 58.2467,180.0 59.0,180.6618 59.3849,181.0 60.0,181.5223 60.5481,182.0 61.0,182.4123 61.75,183.0 62.0,183.2233 62.9472,184.0 63.0,184.0489 64.0,184.7761 64.2433,185.0 65.0,185.7323 65.3029,186.0 66.0,186.552 66.4726,187.0 67.0,187.4806 67.5772,188.0 68.0,188.3605 68.7454,189.0 69.0,189.2578 70.0,189.9303 70.0675,190.0 71.0,190.7886 71.2299,191.0 72.0,191.6512 72.4313,192.0 73.0,192.4627 73.6092,193.0 74.0,193.3469 74.9248,194.0 75.0,194.0654 76.0,194.9239 76.082,195.0 77.0,195.6912 77.375,196.0 78.0,196.5335 78.5276,197.0 79.0,197.3663 79.8229,198.0 80.0,198.1759 81.0,198.9762 81.025,199.0 82.0,199.6724 82.374,200.0 83.0,200.4969 83.6289,201.0 84.0,201.2932 84.874,202.0 85.0,202.1162 86.0,202.6855 86.3774,203.0 87.0,203.5188 87.6393,204.0 88.0,204.3042 89.0,204.9034 89.1139,205.0 90.0,205.5234 90.7409,206.0 91.0,206.1981 92.0,206.6466 92.5484,207.0 93.0,207.3081 94.0,207.7902 94.368,208.0 95.0,208.34 96.0,208.6732 96.8864,209.0 97.0,209.062 98.0,209.4886 99.0,209.6821 100.0,209.8388 100.9074,210.0 101.0,210.0205 102.0,210.114 103.0,210.1232 104.0,210.1021 104.4394,210.0" stroke="black"/>
  <polyline fill="none" points="179.0,115.6513 178.459,115.0 178.0,114.328 177.723,114.0 177.2546,113.0 177.2991,112.0 178.0,111.5119 178.819,111.0 179.0,110.8613 180.0,110.2841 180.7079,111.0 180.545,112.0 180.5,113.0 180.2824,114.0 180.0,114.7742 179.8761,115.0 179.0,115.6513" stroke="black"/>
  <polyline fill="none" points="129.0,119.4816 128.0,119.2448 127.7311,119.0 127.0,118.4894 126.4394,118.0 126.0,117.5292 125.4842,117.0 126.0,116.332 127.0,116.3361 128.0,116.3567 129.0,116.3627 130.0,116.495 131.0,116.5966 131.7591,117.0 131.6025,118.0 131.0,118.3657 130.0,118.9031 129.8932,119.0 129.0,119.4816" stroke="black"/>
  <polyline fill="none" points="167.0,122.1533 166.6818,122.0 166.0,121.5872 165.6522,121.0 165.4567,120.0 165.8558,119.0 166.0,118.872 167.0,118.4029 167.546,118.0 168.0,117.6188 169.0,117.558 169.3987,118.0 170.0,118.8141 170.1439,119.0 170.7808,120.0 171.0,120.842 171.0513,121.0 171.0,121.0546 170.0,121.5707 169.0,121.6359 168.0,121.8653 167.5251,122.0 167.0,122.1533" stroke="black"/>
  <polyline fill="none" points="104.0,199.3892 103.0,199.8032 102.0,199.9264 101.0,199.8852 100.0,199.6445 99.0,199.384 98.0974,199.0 98.0,198.9444 97.0,198.4519 96.1188,198.0 96.0,197.9264 95.0,197.4006 94.4246,197.0 94.0,196.6977 93.0,196.0827 92.9065,196.0 92.0,195.3629 91.5331,195.0 91.0,194.5579 90.3015,194.0 90.0,193.7516 89.0,193.0893 88.9023,193.0 88.0,192.3689 87.5408,192.0 87.0,191.5378 86.3045,191.0 86.0,190.7469 85.0285,190.0 85.0,189.9733 84.0,189.2906 83.6837,189.0 83.0,188.4385 82.4053,188.0 82.0,187.6614 81.1068,187.0 81.0,186.9 80.0,186.229 79.7311,186.0 79.0,185.3651 78.5336,185.0 78.0,184.5903 77.2438,184.0 77.0,183.7923 76.0546,183.0 76.0,182.9515 75.0,182.1444 74.8488,182.0 74.0,181.3671 73.6152,181.0 73.0,180.4543 72.4618,180.0 72.0,179.5659 71.3152,179.0 71.0,178.6979 70.2444,178.0 70.0,177.7969 69.0,177.0271 68.9727,177.0 68.0,176.212 67.7641,176.0 67.0,175.3618 66.5607,175.0 66.0,174.5327 65.415,174.0 65.0,173.6492 64.2656,173.0 64.0,172.747 63.0624,172.0 63.0,171.9337 62.0737,171.0 62.0,170.9302 61.0767,170.0 61.0,169.9191 60.0,169.0636 59.9319,169.0 59.0,168.1423 58.8664,168.0 58.0,167.1836 57.8103,167.0 57.0,166.1134 56.8875,166.0 56.1079,165.0 56.0,164.8833 55.3455,164.0 55.0,163.572 54.5239,163.0 54.0,162.3931 53.6668,162.0 53.0181,161.0 53.0,160.9805 52.2896,160.0 52.0,159.6158 51.6106,159.0 51.0947,158.0 51.0,157.8798 50.5209,157.0 50.0269,156.0 50.0,155.9653 49.5076,155.0 49.2837,154.0 49.0,153.0982 48.9586,153.0 48.7455,152.0 48.6182,151.0 48.5775,150.0 48.5203,149.0 48.4744,148.0 48.4459,147.0 48.4193,146.0 48.3932,145.0 48.3743,144.0 48.3711,143.0 48.3763,142.0 48.3828,141.0 48.3964,140.0 48.4128,139.0 48.4311,138.0 48.4442,137.0 48.4571,136.0 48.4641,135.0 48.4872,134.0 48.5025,133.0 48.4949,132.0 48.4692,131.0 48.4613,130.0 48.477,129.0 48.5,128.0 48.5513,127.0 48.641,126.0 48.7091,125.0 48.9844,124.0 49.0,123.9428 49.2059,123.0 49.3415,122.0 49.5301,121.0 50.0,120.4264 50.4793,120.0 51.0,119.6379 52.0,119.5707 53.0,119.7278 53.5811,120.0 54.0,120.2198 55.0,120.5751 55.8283,121.0 56.0,121.1178 57.0,121.5333 57.9059,122.0 58.0,122.0591 59.0,122.4219 59.9709,123.0 60.0,123.0252 60.6591,124.0 60.6425,125.0 60.5771,126.0 60.5372,127.0 60.4476,128.0 60.4289,129.0 60.4016,130.0 60.3703,131.0 60.3489,132.0 60.3417,133.0 60.3418,134.0 60.3475,135.0 60.3697,136.0 60.3856,137.0 60.4176,138.0 60.4519,139.0 60.4918,140.0 60.5383,141.0 60.5861,142.0 60.6173,143.0 60.7485,144.0 60.9444,145.0 61.0,145.1705 61.2253,146.0 61.4647,147.0 61.7312,148.0 62.0,148.8158 62.0761,149.0 62.4314,150.0 62.7286,151.0 63.0,151.4241 63.3547,152.0 63.6434,153.0 64.0,153.4454 64.4338,154.0 65.0,154.6942 65.2722,155.0 66.0,155.7413 66.2587,156.0 67.0,156.7651 67.2427,157.0 68.0,157.6687 68.3608,158.0 69.0,158.5735 69.4943,159.0 70.0,159.4807 70.6875,160.0 71.0,160.2517 71.9955,161.0 72.0,161.0041 73.0,161.7782 73.2323,162.0 74.0,162.5299 74.5884,163.0 75.0,163.3689 75.828,164.0 76.0,164.1443 77.0,164.807 77.2133,165.0 78.0,165.5921 78.4844,166.0 79.0,166.4388 79.704,167.0 80.0,167.2609 80.9816,168.0 81.0,168.0181 82.0,168.6984 82.3357,169.0 83.0,169.4936 83.6383,170.0 84.0,170.317 85.0,170.9434 85.0659,171.0 86.0,171.7036 86.3868,172.0 87.0,172.4207 87.7327,173.0 88.0,173.2258 89.0,173.9678 89.0331,174.0 90.0,174.6525 90.4425,175.0 91.0,175.4302 91.75,176.0 92.0,176.2032 93.0,176.9346 93.0714,177.0 94.0,177.5973 94.5103,178.0 95.0,178.4086 95.8484,179.0 96.0,179.1321 97.0,179.8116 97.2115,180.0 98.0,180.5481 98.6402,181.0 99.0,181.2879 100.0,181.9307 100.0826,182.0 101.0,182.6134 101.532,183.0 102.0,183.3589 103.0,183.9107 103.1068,184.0 104.0,184.6656 104.5198,185.0 105.0,185.4008 105.636,186.0 106.0,186.7034 106.1207,187.0 106.0,187.6731 105.9375,188.0 105.787,189.0 105.7589,190.0 105.6436,191.0 105.5429,192.0 105.4849,193.0 105.4296,194.0 105.3428,195.0 105.1879,196.0 105.0,196.9219 104.9808,197.0 104.689,198.0 104.3436,199.0 104.0,199.3892" stroke="black"/>
  <polyline fill="none" points="144.0,126.1809 143.7786,126.0 143.0,125.4896 142.0,125.0957 141.8483,125.0 141.0,124.5963 140.0133,124.0 140.5992,123.0 141.0,122.7147 142.0,122.2191 142.2432,122.0 143.0,121.4362 144.0,121.7294 144.1586,122.0 144.3508,123.0 144.4849,124.0 144.7195,125.0 144.3836,126.0 144.0,126.1809" stroke="black"/>
  <polyline fill="none" points="155.0,128.187 154.8099,128.0 154.4335,127.0 154.294,126.0 154.2028,125.0 154.0,124.5167 153.8035,124.0 154.0,123.3921 154.5127,123.0 155.0,122.8697 156.0,122.75 156.9757,123.0 157.0,123.0113 157.4703,124.0 157.71,125.0 157.7089,126.0 157.0,126.655 156.6381,127.0 156.0,127.5778 155.2324,128.0 155.0,128.187" stroke="black"/>
  <polyline fill="none" points="106.0,173.6264 105.0,173.1346 104.8654,173.0 104.0,172.426 103.432,172.0 103.0,171.664 102.0,171.1447 101.8458,171.0 101.0,170.516 100.146,170.0 100.0,169.8821 99.0,169.2742 98.6272,169.0 98.0,168.5693 97.1409,168.0 97.0,167.8686 96.0,167.3182 95.5948,167.0 95.0,166.5402 94.1854,166.0 94.0,165.8378 93.0,165.2281 92.6988,165.0 92.0,164.5278 91.3172,164.0 91.0,163.73 90.0,163.0844 89.9021,163.0 89.0,162.383 88.4913,162.0 88.0,161.61 87.329,161.0 87.0,160.718 86.026,160.0 86.0,159.9744 85.0,159.3087 84.6346,159.0 84.0,158.4231 83.5679,158.0 83.0,157.5268 82.314,157.0 82.0,156.7065 81.0625,156.0 81.0,155.9488 80.0,155.3275 79.5523,155.0 79.0,154.63 78.2188,154.0 78.0,153.8233 77.0,153.0917 76.9111,153.0 76.0,152.281 75.6827,152.0 75.0,151.3918 74.5632,151.0 74.0,150.4855 73.5346,150.0 73.0,149.4281 72.6135,149.0 72.0,148.0499 71.9566,148.0 71.4866,147.0 71.2672,146.0 71.0,145.2729 70.8844,145.0 70.6847,144.0 70.5752,143.0 70.5108,142.0 70.4337,141.0 70.3887,140.0 70.3773,139.0 70.3799,138.0 70.3754,137.0 70.3633,136.0 70.402,135.0 70.409,134.0 70.4111,133.0 70.4685,132.0 70.4049,131.0 70.7381,130.0 71.0,129.7755 71.3454,130.0 72.0,130.3632 73.0,130.9662 73.0366,131.0 74.0,131.6234 74.4995,132.0 75.0,132.3899 75.8561,133.0 76.0,133.1396 77.0,133.8617 77.1703,134.0 78.0,134.6465 78.4355,135.0 79.0,135.3815 79.8674,136.0 80.0,136.1336 81.0,136.6366 81.4469,137.0 82.0,137.4118 83.0,137.9659 83.0369,138.0 84.0,138.8048 84.2355,139.0 85.0,139.5572 85.5293,140.0 86.0,140.4136 86.7471,141.0 87.0,141.2051 87.981,142.0 88.0,142.0181 89.0,142.7127 89.3197,143.0 90.0,143.5148 90.6115,144.0 91.0,144.2953 91.964,145.0 92.0,145.0341 93.0,145.7313 93.3062,146.0 94.0,146.5457 94.6008,147.0 95.0,147.3 95.9203,148.0 96.0,148.0735 97.0,148.8235 97.2124,149.0 98.0,149.5742 98.4748,150.0 99.0,150.4101 99.814,151.0 100.0,151.1586 101.0,151.9285 101.0693,152.0 102.0,152.7289 102.3082,153.0 103.0,153.6965 103.3334,154.0 104.0,154.6197 104.36,155.0 105.0,155.7218 105.2313,156.0 105.8526,157.0 106.0,157.2095 106.3957,158.0 106.5,159.0 106.6222,160.0 106.6715,161.0 106.747,162.0 106.8109,163.0 106.849,164.0 106.8846,165.0 106.9296,166.0 106.9656,167.0 106.937,168.0 106.8444,169.0 106.8333,170.0 106.8596,171.0 106.7919,172.0 106.7852,173.0 106.0,173.6264" stroke="black"/>
  <polyline fill="none" points="160.0,140.0935 159.8687,140.0 159.0,139.0445 158.9687,139.0 159.0,138.0 159.0,138.0 159.512,137.0 160.0,136.2768 160.2138,136.0 160.9545,135.0 161.0,134.9542 162.0,134.045 162.045,134.0 163.0,133.1474 163.1982,133.0 164.0,132.5459 165.0,132.1586 165.2424,132.0 166.0,131.6212 167.0,131.3676 168.0,131.1054 168.4166,131.0 169.0,130.8478 170.0,130.6123 171.0,130.4848 172.0,130.3979 173.0,130.2788 174.0,130.0876 174.5216,130.0 175.0,129.9201 176.0,129.6667 177.0,129.5052 178.0,129.3062 179.0,129.0454 179.7637,130.0 179.5241,131.0 179.3278,132.0 179.0,132.7469 178.8642,133.0 178.4268,134.0 178.0,134.3965 177.0,134.959 176.9108,135.0 176.0,135.2931 175.0,135.4822 174.0,135.4233 173.0,135.2532 172.3442,135.0 172.0,134.8511 171.0,134.6138 170.0,134.595 169.0,134.7384 168.0,134.955 167.9178,135.0 167.0,135.3564 166.0,135.8761 165.8236,136.0 165.0,136.4264 164.0738,137.0 164.0,137.0732 163.0,137.6946 162.5785,138.0 162.0,138.4667 161.375,139.0 161.0,139.2927 160.1008,140.0 160.0,140.0935" stroke="black"/>
  <polyline fill="none" points="200.0,158.6513 199.4069,158.0 199.0,157.4822 198.6071,157.0 198.0,156.2068 197.8262,156.0 197.215,155.0 197.0,154.7354 196.5047,154.0 196.0,153.242 195.7895,153.0 195.2358,152.0 195.0,151.5643 194.6124,151.0 194.0,150.1997 193.8535,150.0 193.0026,149.0 193.0,148.9976 192.3723,148.0 192.0,147.5461 191.4529,147.0 191.6584,146.0 192.0,145.7637 193.0,145.1604 193.1467,145.0 194.0,144.6313 194.8135,144.0 195.0,143.8891 196.0,143.3849 196.507,143.0 197.0,142.661 197.7959,142.0 198.0,141.885 198.4168,142.0 198.3686,143.0 198.7304,144.0 199.0,144.4043 199.2799,144.0 199.4614,143.0 200.0,142.1763 200.2693,143.0 200.2925,144.0 200.3291,145.0 200.393,146.0 200.5093,147.0 200.6566,148.0 200.7832,149.0 200.8277,150.0 200.8328,151.0 200.8142,152.0 200.8133,153.0 200.7462,154.0 200.7781,155.0 200.7069,156.0 200.7292,157.0 200.7117,158.0 200.0,158.6513" stroke="black"/>
  <polyline fill="none" points="177.0,152.0541 176.0,152.6667 175.3261,152.0 175.5,151.0 175.5864,150.0 175.6906,149.0 175.8579,148.0 176.0,147.1249 176.023,147.0 177.0,146.0795 177.3666,146.0 178.0,145.8697 179.0,145.4765 179.8318,146.0 179.7,147.0 179.5751,148.0 179.4021,149.0 179.0,149.9286 178.9535,150.0 178.2444,151.0 178.0,151.2847 177.0551,152.0 177.0,152.0541" stroke="black"/>
  <polyline fill="none" points="199.0456,146.0 199.0,145.8935 198.9635,146.0 199.0,146.0799 199.0456,146.0" stroke="black"/>
  <polyline fill="none" points="165.0,154.8642 164.0,154.864 163.0,154.9542 162.1135,154.0 162.066,153.0 162.2105,152.0 163.0,151.2683 163.2953,151.0 164.0,150.3312 164.3662,150.0 165.0,149.4079 165.4026,149.0 166.0,148.4177 166.9893,149.0 166.714,150.0 166.5174,151.0 166.4293,152.0 166.2139,153.0 166.0,153.7728 165.9272,154.0 165.0,154.8642" stroke="black"/>
  <polyline fill="none" points="207.0,216.2178 206.0,216.2904 205.0,216.4006 204.0,216.5086 203.0,216.5857 202.0,216.6228 201.0,216.6257 200.0,216.6189 199.0,216.571 198.0,216.5369 197.0,216.4944 196.0,216.4466 195.0,216.3683 194.0,216.1923 193.3605,216.0 193.0,215.8817 192.0,215.7112 191.0,215.4392 190.0,215.3012 189.0102,215.0 189.0,214.9959 188.0,214.6718 187.0,214.4564 186.0,214.1952 185.4722,214.0 185.0,213.8253 184.0,213.6543 183.0,213.3953 182.0,213.0344 181.9438,213.0 181.0,212.5661 180.0,212.2835 179.4259,212.0 179.0,211.7745 178.0,211.3889 177.2528,211.0 177.0,210.8228 176.0,210.434 175.197,210.0 175.0,209.8681 174.0,209.4259 173.261,209.0 173.0,208.8376 172.0,208.3952 171.2954,208.0 171.0,207.8092 170.0,207.3709 169.4104,207.0 169.0,206.6548 168.0,206.2756 167.6608,206.0 167.0,205.5457 166.195,205.0 166.0,204.8203 165.0,204.2562 164.6295,204.0 164.0,203.6017 163.0229,203.0 163.0,202.9805 162.0,202.4627 161.5,202.0 161.2914,201.0 161.6871,200.0 162.0,199.7426 163.0,199.7795 164.0,199.7747 165.0,199.7051 166.0,199.747 167.0,199.7606 168.0,199.7367 169.0,199.7173 170.0,199.6953 171.0,199.6813 172.0,199.6541 173.0,199.5891 174.0,199.4856 175.0,199.4052 176.0,199.1723 176.5204,199.0 177.0,198.8321 178.0,198.5467 179.0,198.1993 179.2706,198.0 180.0,197.5881 180.8225,197.0 181.0,196.8388 182.0,196.1774 182.1809,196.0 183.0,195.0349 183.0366,195.0 183.6093,194.0 184.0,193.2228 184.1519,193.0 184.5,192.0 184.7809,191.0 184.9733,190.0 185.0,189.9079 185.2315,189.0 185.3229,188.0 185.3324,187.0 185.2853,186.0 185.1655,185.0 185.0192,184.0 185.0,183.7917 184.9307,183.0 184.6766,182.0 184.4927,181.0 184.1755,180.0 184.0,179.7476 183.5489,179.0 183.0,178.1838 182.8252,178.0 182.0,177.1612 181.8259,177.0 181.0,176.4146 180.4254,176.0 180.0,175.6911 179.0,175.3792 178.0,175.0192 177.9643,175.0 177.0,174.6006 176.0,174.4458 175.0,174.1373 174.1522,174.0 174.0,173.9731 173.0,173.7579 172.0,173.6093 171.0,173.5051 170.0,173.4162 169.0,173.3343 168.0,173.2762 167.0,173.1981 166.0,173.1612 165.0,173.1267 164.0,173.1084 163.0,173.0654 162.8712,173.0 162.0,172.0086 161.9959,172.0 162.0,171.9444 162.0644,171.0 162.1621,170.0 162.2107,169.0 162.262,168.0 162.3289,167.0 162.3342,166.0 162.8705,165.0 163.0,164.8918 164.0,164.8537 165.0,164.8615 166.0,164.7956 167.0,164.7681 168.0,164.7328 169.0,164.7123 170.0,164.6934 171.0,164.7044 172.0,164.7163 173.0,164.6989 174.0,164.6386 175.0,164.5842 176.0,164.4543 177.0,164.3079 178.0,164.0644 178.25,164.0 179.0,163.8322 180.0,163.681 181.0,163.4855 182.0,163.1759 182.5204,163.0 183.0,162.8379 184.0,162.2428 184.3454,162.0 185.0,161.5738 185.6107,161.0 186.0,160.6267 186.5755,160.0 187.0,159.5361 187.4509,159.0 188.0,158.391 188.669,159.0 189.0,159.3321 189.4701,160.0 190.0,160.6416 190.3182,161.0 190.9351,162.0 191.0,162.0714 191.6657,163.0 192.0,163.4111 192.5,164.0 193.0,164.5638 193.3683,165.0 194.0,165.7932 194.2052,166.0 195.0,166.7448 195.2386,167.0 196.0,167.6853 196.3591,168.0 197.0,168.6283 197.6494,169.0 198.0,169.3144 198.3556,170.0 198.4225,171.0 198.4332,172.0 198.4648,173.0 198.4075,174.0 198.4245,175.0 198.4199,176.0 198.4093,177.0 198.4134,178.0 198.4347,179.0 198.4613,180.0 198.4894,181.0 198.5324,182.0 198.5656,183.0 198.5963,184.0 198.6356,185.0 198.6855,186.0 198.7413,187.0 198.8673,188.0 199.0,188.5 199.1327,189.0 199.3771,190.0 199.5234,191.0 199.9553,192.0 200.0,192.0764 200.3889,193.0 201.0,193.9952 201.0039,194.0 201.6754,195.0 202.0,195.4111 202.5032,196.0 203.0,196.5131 203.4934,197.0 204.0,197.4554 204.6141,198.0 205.0,198.3142 206.0,198.864 206.1869,199.0 207.0,199.4282 208.0,199.8279 208.5761,200.0 209.0,200.1466 210.0,200.4105 211.0,200.5056 212.0,200.5432 213.0,200.5672 214.0,200.5221 215.0,200.4371 216.0,200.2736 217.0,200.0299 217.0648,200.0 218.0,199.7029 219.0,199.481 220.0,199.0754 220.1044,199.0 221.0,198.5497 222.0,198.0202 222.024,198.0 223.0,197.3656 223.4495,197.0 224.0,196.4693 224.4281,196.0 225.0,195.3776 225.317,195.0 226.0,194.0208 226.0192,194.0 226.5792,193.0 227.0,192.1996 227.1377,192.0 227.4555,191.0 227.7364,190.0 228.0,189.4135 228.1931,189.0 228.4412,188.0 228.6461,187.0 229.0,186.065 229.0338,186.0 229.3004,185.0 229.7033,184.0 230.0,183.7522 230.6351,184.0 231.0,184.1656 232.0,184.5374 232.9362,185.0 233.0,185.0403 234.0,185.562 234.6964,186.0 235.0,186.2123 235.8406,187.0 236.0,187.1483 237.0,187.8589 237.1156,188.0 237.9438,189.0 238.0,189.0757 238.4488,190.0 238.6531,191.0 238.7542,192.0 238.7462,193.0 238.6608,194.0 238.5115,195.0 238.3294,196.0 238.0051,197.0 238.0,197.0095 237.5942,198.0 237.4012,199.0 237.0,199.7864 236.8496,200.0 236.2462,201.0 236.0,201.2661 235.4477,202.0 235.0,202.5405 234.4943,203.0 234.0,203.5114 233.5787,204.0 233.0,204.5857 232.5674,205.0 232.0,205.664 231.6615,206.0 231.0,206.6199 230.5545,207.0 230.0,207.4879 229.3717,208.0 229.0,208.2709 228.0,208.9754 227.97,209.0 227.0,209.5739 226.3513,210.0 226.0,210.2437 225.0,210.7032 224.5701,211.0 224.0,211.3631 223.0,211.8394 222.7427,212.0 222.0,212.3805 221.0,212.8097 220.6814,213.0 220.0,213.3465 219.0,213.6147 218.0,213.9466 217.8923,214.0 217.0,214.3191 216.0,214.4508 215.0,214.6819 214.0,214.8458 213.5266,215.0 213.0,215.154 212.0,215.3546 211.0,215.5067 210.0,215.6687 209.0,215.8503 208.0,215.9891 207.9632,216.0 207.0,216.2178" stroke="black"/>
  <polyline fill="none" points="168.0,190.0504 167.0,190.0693 166.0,190.0625 165.0,190.0839 164.0,190.0485 163.0,190.1043 162.0,190.0269 161.9578,190.0 161.2134,189.0 161.3324,188.0 161.3162,187.0 161.3974,186.0 161.3305,185.0 161.6399,184.0 162.0,183.704 163.0,183.6847 164.0,183.7139 165.0,183.6453 166.0,183.6156 167.0,183.6756 168.0,183.7229 169.0,183.7441 170.0,183.8161 170.95,184.0 171.0,184.0116 172.0,184.2399 173.0,184.5441 173.6008,185.0 174.0,185.4153 174.4028,186.0 174.5801,187.0 174.5452,188.0 174.0,188.8543 173.8598,189.0 173.0,189.5591 172.0,189.7166 171.0,189.9693 170.0,189.9515 169.0,189.9808 168.7222,190.0 168.0,190.0504" stroke="black"/>
  <polyline fill="none" points="52.0,231.3602 51.0,231.3314 50.0,231.2422 49.4,231.0 49.0,230.8015 48.0,230.2857 47.6837,230.0 47.2401,229.0 47.0,228.5409 46.7464,228.0 46.5577,227.0 46.4997,226.0 46.4397,225.0 46.3645,224.0 46.2975,223.0 46.273,222.0 46.2546,221.0 46.25,220.0 46.2516,219.0 46.2469,218.0 46.2233,217.0 46.2044,216.0 46.1,215.0 46.0639,214.0 46.0039,213.0 46.0,212.9167 45.9586,212.0 45.9307,211.0 45.8916,210.0 45.8444,209.0 45.8173,208.0 45.7413,207.0 45.737,206.0 45.7328,205.0 45.7244,204.0 45.7203,203.0 45.7123,202.0 45.7067,201.0 45.7028,200.0 45.7339,199.0 45.7411,198.0 45.762,197.0 45.7774,196.0 45.7919,195.0 45.8019,194.0 45.807,193.0 45.8019,192.0 46.0,191.3579 47.0,191.377 47.4851,192.0 48.0,192.5948 48.4006,193.0 49.0,193.6472 49.3639,194.0 50.0,194.5912 50.4238,195.0 51.0,195.5981 51.3802,196.0 52.0,196.6273 52.3705,197.0 53.0,197.6786 53.3037,198.0 54.0,198.6449 54.3698,199.0 54.9186,200.0 55.0,200.75 55.0269,201.0 55.1092,202.0 55.1276,203.0 55.1276,204.0 55.1336,205.0 55.1453,206.0 55.1453,207.0 55.1743,208.0 55.1891,209.0 55.213,210.0 55.2544,211.0 55.3045,212.0 55.3556,213.0 55.3984,214.0 55.4201,215.0 55.4897,216.0 55.5,217.0 55.5077,218.0 55.5129,219.0 55.5129,220.0 55.5052,221.0 55.4948,222.0 55.4871,223.0 55.4416,224.0 55.4112,225.0 55.289,226.0 55.1299,227.0 55.0,227.5428 54.8879,228.0 54.4974,229.0 54.2042,230.0 54.0,230.1986 53.0,230.9587 52.9305,231.0 52.0,231.3602" stroke="black"/>
</svg>
